<?xml version="1.0" encoding="utf-8"?>
<!-- Generator: Adobe Illustrator 23.0.1, SVG Export Plug-In . SVG Version: 6.00 Build 0)  -->
<svg version="1.1" xmlns="http://www.w3.org/2000/svg" xmlns:xlink="http://www.w3.org/1999/xlink" x="0px" y="0px"
	 viewBox="0 0 834 892.5" style="enable-background:new 0 0 834 892.5;" xml:space="preserve">
<style type="text/css">
	.st0{fill:#FFFF00;}
	.st1{fill:#346933;}
	.st2{fill:#010101;}
	.st3{fill:#FFFFFF;}
	.st4{fill:none;}
	.st5{opacity:0.75;}
	.st6{clip-path:url(#SVGID_2_);fill:#010101;}
	.st7{clip-path:url(#SVGID_4_);fill:#FFFFFF;}
	.st8{clip-path:url(#SVGID_6_);fill:#FFFFFF;}
	.st9{clip-path:url(#SVGID_8_);fill:#FFFFFF;}
	.st10{clip-path:url(#SVGID_10_);fill:url(#SVGID_11_);}
	.st11{clip-path:url(#SVGID_13_);fill:url(#SVGID_14_);}
	.st12{clip-path:url(#SVGID_16_);fill:url(#SVGID_17_);}
	.st13{clip-path:url(#SVGID_19_);fill:url(#SVGID_20_);}
	.st14{clip-path:url(#SVGID_22_);fill:url(#SVGID_23_);}
	.st15{clip-path:url(#SVGID_25_);fill:url(#SVGID_26_);}
	.st16{clip-path:url(#SVGID_28_);fill:url(#SVGID_29_);}
	.st17{clip-path:url(#SVGID_31_);fill:url(#SVGID_32_);}
	.st18{clip-path:url(#SVGID_34_);fill:url(#SVGID_35_);}
	.st19{clip-path:url(#SVGID_37_);fill:url(#SVGID_38_);}
	.st20{clip-path:url(#SVGID_40_);fill:url(#SVGID_41_);}
	.st21{clip-path:url(#SVGID_43_);fill:url(#SVGID_44_);}
</style>
<g id="Layer_4">
</g>
<g id="Layer_6">
	<g>
		<path d="M766.4,442.9h58.4c-0.2-2.3-0.3-4.7-0.5-7h-58.4C766,438.2,766.2,440.5,766.4,442.9z"/>
		<path d="M140.7,209c-0.2,0.6-0.3,1.1-0.2,1.7c0.1,0.5,0.3,1,0.7,1.3c0.6,0.6,1.3,0.8,2.2,0.7c0.9-0.1,1.7-0.6,2.6-1.5
			c0.9-0.9,1.5-1.9,1.8-3c0.3-1.1,0.4-2.1,0.1-3.1c-0.2-0.7-0.8-1.6-1.8-2.6c-0.3-0.3-0.5-0.5-0.8-0.8c-0.6,1.2-1.6,2.8-3.1,4.7
			C141.4,207.5,140.9,208.4,140.7,209z"/>
		<path d="M115,226.6c0.4-0.9,0.5-1.7,0.4-2.4c-0.1-0.7-0.5-1.4-1.2-2c-0.6-0.5-1.3-0.8-2.1-0.9c-0.8-0.1-1.5,0.2-2.2,0.7
			c-0.7,0.5-1.7,1.5-3,3.1c-1.4,1.8-2.1,2.7-3.6,4.5c2.4,1.9,3.6,2.8,6,4.7c1.5-1.9,2.3-2.9,3.8-4.8
			C114,228.2,114.6,227.2,115,226.6z"/>
		<path d="M124,234.1c0.4-0.7,0.7-1.4,0.8-2c0.1-0.6,0.1-1.3-0.2-2c-0.2-0.7-0.7-1.3-1.3-1.8c-0.7-0.6-1.5-0.9-2.4-1
			c-0.9,0-1.7,0.2-2.5,0.8c-0.8,0.5-1.8,1.5-2.9,2.9c-1.6,2-2.4,3-4,5c2.7,2.1,4.1,3.2,6.8,5.3c1.7-2.1,2.5-3.2,4.2-5.3
			C123.2,235.2,123.7,234.5,124,234.1z"/>
		<path d="M195.3,161.3c-1,0.9-1.7,1.7-2,2.2c-0.3,0.5-0.5,1-0.5,1.6c0,0.5,0.2,1,0.5,1.5c0.5,0.7,1.2,1,2,1.1
			c0.9,0.1,1.8-0.3,2.9-1c1-0.7,1.8-1.6,2.3-2.6c0.5-1,0.7-2,0.6-3c-0.1-0.8-0.5-1.7-1.3-2.8c-0.3-0.4-0.4-0.6-0.6-0.9
			C198.4,158.2,197.1,159.6,195.3,161.3z"/>
		<path d="M92,264.6c2.5-3.8,3.7-5.7,6.3-9.4c-1.3-0.7-2.5-1-3.6-0.9c-1.6,0.2-2.9,1.1-3.9,2.6c-0.9,1.3-1.2,2.7-1,4.1
			C90,262.5,90.8,263.7,92,264.6z"/>
		<path d="M269,121.2c-0.4,0.4-0.7,0.9-0.8,1.4c-0.1,0.5-0.1,1,0.1,1.5c0.3,0.8,0.9,1.3,1.7,1.5c0.8,0.2,1.8,0.1,3.1-0.4
			c1.2-0.5,2.2-1.2,2.9-2c0.7-0.9,1.2-1.8,1.3-2.8c0.1-0.8-0.1-1.8-0.6-3.1c-0.2-0.4-0.2-0.6-0.4-1.1c-1,0.9-2.6,1.9-4.7,3.1
			C270.3,120.2,269.5,120.8,269,121.2z"/>
		<path d="M604.2,144.4c1,0.2,1.9,0.2,2.7,0.1c1.1-0.3,2.2-0.8,3.3-1.7c1.1-0.9,2.1-2.2,3.1-3.8c1.3-2.2,2-4.2,1.9-5.9
			c-0.1-1.7-0.6-3.1-1.5-4.2c-0.7-0.8-2-1.7-3.8-2.8c-2-1.1-3-1.7-5.1-2.8c-3.6,6.7-5.5,10.1-9.2,16.8c2,1.1,2.9,1.6,4.9,2.7
			C602,143.6,603.2,144.2,604.2,144.4z"/>
		<path d="M715.1,227.8c2.8,3.3,4.1,5,6.8,8.4c1.2-1,1.9-2.1,2.1-3.1c0.3-1.5-0.1-3-1.1-4.3c-1-1.2-2.2-1.9-3.6-2.1
			C717.8,226.5,716.4,226.9,715.1,227.8z"/>
		<path d="M91,282.8c0.8-1.3,0.9-2.7,0.5-4.2c-0.4-1.5-1.7-2.9-3.8-4.2c-2-1.2-3.7-1.7-5.3-1.3c-1.5,0.3-2.7,1.1-3.5,2.4
			c-0.8,1.3-0.9,2.7-0.4,4.3c0.5,1.6,1.8,3,3.8,4.1c2,1.2,3.8,1.6,5.3,1.2C89.2,284.9,90.3,284.1,91,282.8z"/>
		<path d="M679.2,199.8c1.6-0.1,3.3-1,5-2.7c1.6-1.6,2.4-3.2,2.5-4.8c0-1.6-0.6-2.9-1.7-4c-1.2-1.1-2.6-1.6-4.2-1.5
			c-1.6,0.1-3.2,1-4.8,2.7c-1.6,1.7-2.4,3.3-2.5,4.9c0,1.6,0.5,2.9,1.7,4C676.2,199.4,677.6,199.9,679.2,199.8z"/>
		<path d="M370.1,87.6c-1.3-1-2.8-1.5-4.6-1.2c-1.6,0.2-2.9,0.9-3.9,2c-1,1.1-1.4,2.4-1.3,4c4.6-0.7,6.9-1,11.5-1.5
			C371.5,89.4,370.9,88.3,370.1,87.6z"/>
		<path d="M58.8,332.8c2.2,0.9,4,1,5.5,0.4c1.5-0.6,2.5-1.6,3.1-3c0.6-1.3,0.5-2.7-0.1-4.1c-0.6-1.4-2-2.6-4-3.5
			c-2.2-1-4.1-1.2-5.7-0.6c-1.6,0.6-2.7,1.6-3.2,3c-0.6,1.4-0.6,2.8,0.1,4.3C55.1,330.8,56.5,332,58.8,332.8z"/>
		<path d="M740.2,261.4c2.4,3.6,3.6,5.4,5.9,9.1c1.3-0.9,2.1-1.8,2.4-2.8c0.5-1.5,0.3-3-0.6-4.4c-0.8-1.3-2-2.1-3.4-2.5
			C743.1,260.5,741.7,260.7,740.2,261.4z"/>
		<path d="M45.3,482.8c-1.4-1-4.1-1.4-8.2-1.4c-4.1,0-6.8,0.5-8.2,1.4c-1.4,1-2,2.2-2,3.6c0,1.4,0.6,2.5,1.8,3.4
			c1.5,1.1,4.3,1.6,8.4,1.6c4.1,0,6.8-0.5,8.2-1.4c1.4-1,2-2.1,2-3.6C47.3,485,46.6,483.8,45.3,482.8z"/>
		<path d="M757.2,295.7c-0.8-1.1-1.4-1.9-1.9-2.2c-0.5-0.4-1-0.6-1.6-0.7c-0.6-0.1-1.1,0-1.6,0.3c-0.8,0.4-1.3,1-1.5,1.8
			c-0.2,0.8,0,1.8,0.6,2.9c0.6,1.1,1.3,2,2.3,2.6c0.9,0.6,1.9,1,3,1c0.8,0,1.9-0.3,3.2-0.9c0.4-0.2,0.6-0.3,1.1-0.5
			C759.8,299.1,758.6,297.6,757.2,295.7z"/>
		<path d="M723.6,253.2c0.8,1.1,2,1.8,3.5,2c1.5,0.2,3.3-0.3,5.2-1.6c2.1-1.4,3.4-2.8,3.8-4.3c0.4-1.5,0.2-2.9-0.7-4.1
			c-0.9-1.2-2.1-1.9-3.6-2c-1.5-0.1-3.3,0.5-5.3,1.9c-2,1.4-3.1,2.8-3.5,4.3C722.6,250.8,722.8,252.1,723.6,253.2z"/>
		<path d="M825.3,454.9h-58.3c0.2,4.8,0.3,9.7,0.3,14.6c0,25-2.6,49.5-7.6,73c-4.9-3.2-16.3-11.5-20.2-21.8
			c-5-13.3-5.8-36.6,3.3-56.9c9.1-20.4,12.5-32,12.5-32s-15,29.1-16.6,30.7c-1.7,1.7-5,0.4-5,0.4s4.2-12,7.5-19.1
			c3.3-7.1,7.5-21.2,7.5-21.2s-19.5,33.2-20.8,35.3c-1.2,2.1-7.5,1.2-7.5,1.2s7.5-35.7,7.5-37.8c0-2.1-15,33.6-17,34.9
			c-2.1,1.2-9.6-1.7-9.6-1.7l-0.8-42.2l-12,40.5h-10.4L667.4,412l-1.2,41.2l-10.8,0.5L637.9,416l7.5,39.5l-8.3,2.1l-20.4-37
			l9.1,34.9l-2.9,0.4l-16.2-29.5c0,0,18.7,43.2,17.9,65.6c-0.8,22.4-0.4,32.4-32.8,55.7c-32.4,23.3,13.7,34.1-118.4,40.7
			c-132.1,6.6-179.4-13.5-179.4-13.5l-2.5-26h-4.1v6h-5v12h-5v-10h-4v-2h-6v3h-7v6h-3v9h-6v-14h-8v6h-5v-6h-5v5h-3v6h-2v3h-4v-9h-9
			v-3H209h-7.5h-10c0,0,3.1-2,5.3-3.6l2.2-1.4h-10.6v-22h-8v30h-2v-32h-13v28.5c0,0-0.6-8.5-10.3-8.8c-9.7-0.3-11.5,8.3-11.5,8.3
			h-7.2v4h-5v-4h-7v7h-5v-29.4c0,0,1.3,0.8,2.3,0c1-0.9,3.1,0,3.1,0l0.1-4.4c0,0-2.5-1.1-3.4,0c-0.9,1.1-4.1,0-4.1,0v32.9h-3v-7h-5
			v6h-5v-4h-5v-5H81.6h-8.8c-7-28-10.7-56.6-10.7-86.5c0-194.8,157.9-352.6,352.7-352.6c179.3,0,327.4,133.9,349.7,307.1h58.6
			C800.4,219.6,627.2,60.8,416.9,60.8c-225.7,0-408.7,183-408.7,408.7c0,108.5,42.3,207.2,111.3,280.4h594.8
			c69-73.2,111.3-171.8,111.3-280.4C825.6,464.6,825.5,459.7,825.3,454.9z M781.5,304.2c-9.7,4.1-14.6,6.1-24.4,10.1
			c-0.5-1.2-0.8-1.7-1.4-2.9c9.7-4.1,14.6-6.2,24.2-10.3C780.6,302.3,780.9,303,781.5,304.2z M765,288.3c1,0.9,1.9,2.2,2.7,3.7
			c0.8,1.5,1.3,2.8,1.4,3.9c0.1,1.1,0,2-0.3,2.7c-0.3,0.7-0.8,1.3-1.5,1.8c-0.4,0.3-1.3,0.8-2.6,1.4c-1.6,0.7-2.4,1-3.9,1.7
			c-2.7,1.2-4.5,2-5.1,2.5c-0.7,0.4-1.2,1-1.7,1.6c-0.6-1.2-0.9-1.8-1.5-3c0.5-0.6,1.9-1.5,1.9-1.5c0-0.2-2.6-1.4-3.5-2.2
			c-0.9-0.8-1.6-1.8-2.2-2.9c-1-1.8-1.3-3.4-0.9-4.9c0.4-1.4,1.3-2.5,2.7-3.2c0.8-0.4,1.7-0.6,2.6-0.6c0.9,0,1.7,0.3,2.5,0.7
			c0.8,0.4,1.5,0.9,2.1,1.6c0.5,0.5,1.1,1.3,1.8,2.4c1.5,2.2,3.2,4.7,3.7,4.8c0.2,0,0.7-0.3,0.8-0.3c1.2-0.5,1.9-1.2,2.1-2
			c0.3-1.1,0-2.3-0.8-3.8c-0.7-1.4-1.5-2.3-2.4-2.7c-0.8-0.4-1.9-0.5-3.3-0.2c-0.5-1.2-0.7-1.8-1.2-3c1.3-0.3,2.5-0.4,3.6-0.2
			C763,286.8,764,287.4,765,288.3z M758.4,276.1c-1,0.5-1.5,0.8-2.5,1.3c1.6,0,2.7,0.2,3.4,0.6c0.7,0.4,1.3,0.9,1.6,1.6
			c0.6,1,0.8,2.1,0.8,3.5c-1.3,0.1-1.9,0.2-3.2,0.3c0-0.9-0.2-1.7-0.6-2.4c-0.4-0.6-0.9-1.1-1.5-1.4c-0.7-0.3-1.4-0.4-2.2-0.3
			c-1.2,0.2-2.4,0.6-3.6,1.3c-3.5,1.8-5.2,2.8-8.8,4.6c-0.6-1.1-1-1.7-1.6-2.7c6.7-3.6,10-5.4,16.6-8.9
			C757.5,274.5,757.8,275.1,758.4,276.1z M750.2,261.9c1.4,2.2,1.9,4.5,1.3,6.7c-0.6,2.3-2.3,4.1-5,5.6c-0.2,0.1-0.4,0.2-0.8,0.4
			c-3-4.9-4.5-7.3-7.7-12.1c-1.7,1.2-2.7,2.5-3.1,3.9c-0.4,1.4-0.1,2.8,0.7,4.2c0.6,1,1.4,1.7,2.4,2.1c1,0.4,2.2,0.5,3.6,0.2
			c0.6,1.2,0.8,1.8,1.4,3c-2,0.5-3.8,0.4-5.4-0.3c-1.7-0.7-3.1-1.9-4.3-3.8c-1.5-2.3-1.9-4.6-1.4-6.8c0.5-2.2,2.1-4.1,4.7-5.7
			c2.7-1.7,5.2-2.3,7.7-1.8C746.7,258.2,748.7,259.6,750.2,261.9z M733.8,240.6c1.4,0.6,2.7,1.5,3.6,2.9c0.7,1,1.1,2,1.3,3
			c0.1,1,0.1,2-0.2,2.9c3.1-2,4.6-3,7.7-5.1c0.8,1.1,1.2,1.7,2,2.8c-8.7,5.6-13,8.4-21.7,13.9c-0.7-1-1-1.5-1.7-2.4
			c0.8-0.5,1.2-0.8,2-1.3c-2.2,0-4-0.9-5.4-2.8c-0.9-1.2-1.3-2.5-1.4-4c-0.1-1.5,0.3-2.9,1.1-4.3c0.8-1.4,1.9-2.6,3.5-3.7
			c1.5-1.1,3.1-1.8,4.7-2.1C730.8,239.9,732.3,240,733.8,240.6z M724.8,227.2c1.7,2,2.3,4.2,2,6.5c-0.3,2.3-1.8,4.3-4.3,6.1
			c-0.2,0.1-0.4,0.3-0.7,0.5c-3.5-4.5-5.3-6.8-9-11.1c-1.5,1.3-2.4,2.8-2.6,4.2c-0.2,1.5,0.2,2.8,1.2,4c0.7,0.9,1.6,1.5,2.6,1.8
			c1,0.3,2.2,0.2,3.6-0.2c0.7,1.1,1,1.7,1.7,2.9c-1.9,0.7-3.7,0.8-5.4,0.3c-1.7-0.5-3.3-1.6-4.6-3.3c-1.7-2.1-2.4-4.3-2.2-6.6
			c0.3-2.3,1.6-4.3,3.9-6.2c2.4-1.9,4.9-2.8,7.3-2.6C721,223.9,723.1,225.1,724.8,227.2z M709.2,199.6c5.2,5.4,7.7,8.2,12.6,13.8
			c-0.9,0.8-1.4,1.1-2.3,1.9c-3.9-4.5-5.9-6.7-10-11.1c-2.4,2.1-3.5,3.1-5.9,5.2c3.4,3.7,5.1,5.6,8.5,9.4c-0.9,0.8-1.4,1.1-2.3,1.9
			c-3.3-3.8-5-5.6-8.4-9.3c-3.5,3-5.2,4.6-8.7,7.6c-0.9-1-1.4-1.5-2.3-2.5C697.9,209.7,701.7,206.4,709.2,199.6z M686.6,186.5
			c2,1.8,3,4,3.1,6.3c0.1,2.3-1,4.5-3.1,6.6c-1.7,1.6-3.3,2.7-4.8,3.1c-1.5,0.4-3,0.4-4.5,0c-1.5-0.4-2.9-1.2-4.1-2.3
			c-1.9-1.8-2.9-3.8-3-6.1c-0.1-2.3,0.9-4.6,3-6.8c2.3-2.5,4.8-3.7,7.4-3.5C682.9,183.9,684.9,184.8,686.6,186.5z M675.7,171.3
			c1.5,0.3,2.3,0.5,3.8,0.8c-1.7,1.9-2.6,2.8-4.3,4.7c1,0.9,1.5,1.3,2.5,2.2c-0.7,0.7-1,1.1-1.6,1.8c-1-0.9-1.5-1.3-2.5-2.2
			c-2.9,3.2-4.3,4.8-7.2,7.9c-0.6,0.7-0.9,1.1-1,1.4c-0.1,0.3-0.1,0.5,0,0.8c0.1,0.3,0.3,0.6,0.7,0.9c0.3,0.2,0.6,0.5,1.1,0.8
			c-0.6,0.9-0.9,1.4-1.5,2.3c-0.8-0.5-1.5-0.9-2-1.4c-0.9-0.8-1.4-1.5-1.7-2.1c-0.2-0.7-0.3-1.3-0.1-1.9c0.2-0.6,0.9-1.6,2.1-3
			c2.8-3.1,4.2-4.7,7-7.9c-0.7-0.6-1.1-0.9-1.9-1.6c0.6-0.7,0.9-1.1,1.6-1.8c0.7,0.6,1.1,0.9,1.9,1.6
			C673.9,173.3,674.5,172.6,675.7,171.3z M670,163.4c1.1,0.9,1.6,1.3,2.6,2.1c-0.9,1.1-1.4,1.6-2.3,2.7c-1-0.9-1.6-1.3-2.6-2.1
			C668.7,165,669.1,164.5,670,163.4z M668.2,170.8c-4.7,5.5-7.1,8.3-11.9,13.8c-1-0.8-1.5-1.2-2.4-2c4.7-5.6,7.1-8.4,11.8-13.9
			C666.6,169.6,667.1,170,668.2,170.8z M657.8,162.5c-0.7,0.9-1,1.3-1.7,2.2c1.4-0.5,2.5-0.8,3.3-0.7c0.8,0.1,1.5,0.4,2.1,0.8
			c0.9,0.7,1.6,1.7,2,2.9c-1.1,0.6-1.6,0.9-2.7,1.5c-0.3-0.8-0.8-1.5-1.5-2c-0.6-0.4-1.2-0.7-1.9-0.7c-0.7,0-1.4,0.1-2,0.6
			c-1,0.6-1.9,1.5-2.7,2.5c-2.4,3-3.6,4.5-6,7.4c-1-0.8-1.5-1.2-2.5-1.9c4.5-5.7,6.8-8.6,11.3-14.3
			C656.3,161.4,656.8,161.8,657.8,162.5z M645.2,153.2c0.8,0.6,1.2,0.9,2,1.4c1.1-1.4,1.6-2.2,2.7-3.6c1.5,0.2,2.3,0.3,3.8,0.5
			c-1.5,2-2.3,3-3.8,5.1c1.1,0.8,1.6,1.2,2.7,2c-0.6,0.8-0.9,1.1-1.5,1.9c-1.1-0.8-1.6-1.2-2.7-2c-2.6,3.4-3.8,5.1-6.4,8.5
			c-0.5,0.7-0.8,1.2-0.9,1.5c-0.1,0.3,0,0.5,0.1,0.8c0.1,0.3,0.4,0.5,0.7,0.8c0.3,0.2,0.7,0.5,1.2,0.7c-0.5,1-0.8,1.5-1.3,2.4
			c-0.8-0.4-1.5-0.8-2.1-1.2c-0.9-0.7-1.5-1.4-1.8-2c-0.3-0.7-0.4-1.3-0.2-1.9c0.1-0.6,0.8-1.7,1.9-3.1c2.5-3.4,3.8-5,6.2-8.4
			c-0.8-0.6-1.2-0.9-2-1.4C644.4,154.4,644.6,154,645.2,153.2z M633.8,145.3c0.9,0.3,1.8,0.7,2.6,1.3c1.3,0.9,2.3,1.8,3,2.8
			c0.7,1,1.1,1.9,1.2,2.8c0,0.9-0.2,1.9-0.7,2.9c-1.2-0.6-1.7-0.9-2.9-1.5c0.4-0.8,0.5-1.7,0.2-2.5c-0.3-0.8-1-1.6-2-2.3
			c-1.3-0.9-2.3-1.3-3.1-1.2c-0.8,0-1.4,0.3-1.7,0.8c-0.2,0.3-0.3,0.7-0.3,1.1c0,0.4,0.2,0.9,0.6,1.4c0.2,0.3,0.9,1,2,2.3
			c1.6,1.8,2.6,3.1,3.2,3.9c0.5,0.8,0.8,1.7,0.8,2.5c0,0.9-0.3,1.7-0.9,2.6c-0.6,0.8-1.4,1.4-2.5,1.8c-1,0.4-2.2,0.4-3.4,0.2
			c-1.2-0.3-2.5-0.8-3.7-1.6c-2-1.4-3.3-2.8-3.8-4.3c-0.5-1.5-0.4-3.2,0.4-5c1.2,0.5,1.8,0.8,2.9,1.3c-0.5,1.1-0.6,2.2-0.3,3.1
			c0.3,1,1.1,1.9,2.3,2.7c1.2,0.8,2.3,1.2,3.2,1.1c0.9-0.1,1.6-0.4,2.1-1c0.4-0.6,0.5-1.2,0.2-1.9c-0.2-0.5-0.9-1.4-2.1-2.7
			c-1.6-1.8-2.7-3.1-3.3-4c-0.5-0.9-0.8-1.7-0.8-2.6c0-0.9,0.3-1.7,0.7-2.4c0.4-0.7,1-1.2,1.7-1.5c0.7-0.4,1.5-0.5,2.3-0.5
			C632.2,144.9,632.9,145,633.8,145.3z M627.1,132.9c1.2,0.7,1.7,1.1,2.9,1.8c-0.8,1.2-1.1,1.8-1.9,3c-1.1-0.7-1.7-1.1-2.9-1.8
			C626,134.7,626.3,134.1,627.1,132.9z M626.3,140.5c-3.9,6.1-5.9,9.2-9.8,15.3c-1.1-0.7-1.6-1-2.7-1.7c3.9-6.1,5.8-9.2,9.7-15.3
			C624.6,139.4,625.1,139.8,626.3,140.5z M602.9,119c3.4,1.8,5.1,2.7,8.4,4.6c1.9,1.1,3.3,2,4.1,2.7c1.2,1.1,2.1,2.3,2.6,3.6
			c0.7,1.7,0.9,3.5,0.6,5.3c-0.3,1.8-1,3.7-2.2,5.6c-1,1.6-2.1,2.9-3.2,3.9c-1.2,1-2.3,1.7-3.4,2.2c-1.1,0.4-2.2,0.7-3.2,0.7
			c-1,0-2.1-0.1-3.3-0.5c-1.2-0.4-2.5-0.9-3.8-1.7c-3.3-1.8-4.9-2.7-8.2-4.5C595.9,132.2,598.2,127.8,602.9,119z M358.5,87.4
			c1.5-1.9,3.8-3.1,6.7-3.5c2.8-0.4,5.2,0.2,7.2,1.6c2,1.4,3.1,3.7,3.4,6.7c0,0.2,0,0.5,0.1,0.8c-6.1,0.6-9.2,1-15.3,1.9
			c0.4,2,1.3,3.4,2.5,4.3c1.3,0.9,2.7,1.2,4.4,1c1.3-0.2,2.3-0.6,3.1-1.3c0.8-0.7,1.4-1.7,1.8-3.1c1.4,0,2.2,0,3.6,0
			c-0.4,1.9-1.3,3.5-2.6,4.6c-1.4,1.2-3.2,1.9-5.6,2.2c-2.9,0.4-5.3-0.1-7.3-1.5c-2-1.4-3.2-3.5-3.6-6.4
			C356.4,91.8,356.9,89.3,358.5,87.4z M346.1,87.3c0.2,1.1,0.3,1.6,0.5,2.7c0.6-1.4,1.2-2.4,1.8-2.9c0.6-0.5,1.3-0.9,2.2-1
			c1.2-0.2,2.4-0.1,3.8,0.4c-0.3,1.2-0.5,1.8-0.8,3c-0.9-0.3-1.8-0.4-2.7-0.2c-0.8,0.1-1.4,0.4-1.9,1c-0.5,0.5-0.9,1.1-1,1.9
			c-0.2,1.1-0.2,2.4,0.1,3.6c0.7,3.7,1,5.6,1.7,9.4c-1.3,0.2-2,0.4-3.3,0.6c-1.3-7.1-2-10.7-3.4-17.9
			C344.2,87.6,344.9,87.5,346.1,87.3z M324.5,91.8c2.8,3.8,4.1,5.7,6.8,9.6c0.7,1,2.1,3.3,2.1,3.3c0,0,0.3-2.2,0.5-3.7
			c0.8-4.7,1.2-7.1,2.2-11.8c1.4-0.3,2.1-0.4,3.6-0.7c-1.7,7.8-2.5,11.6-3.9,19.4c-1.2,0.3-1.8,0.4-3.1,0.7
			c-4.6-6.4-6.9-9.6-11.7-15.9C322.3,92.3,323.1,92.1,324.5,91.8z M322,111.2c-1.3,0.3-2,0.5-3.3,0.9c-1.9-7-2.8-10.5-4.7-17.6
			c1.4-0.4,2-0.5,3.4-0.9C319.3,100.6,320.2,104.1,322,111.2z M315.7,86.9c0.4,1.4,0.5,2.1,0.9,3.4c-1.4,0.4-2.1,0.5-3.4,0.9
			c-0.4-1.4-0.5-2.1-0.9-3.4C313.6,87.4,314.3,87.2,315.7,86.9z M294.2,93.1c2.7,8.4,4,12.7,6.7,21.1c5.2-1.6,7.8-2.4,13-3.9
			c0.3,1.1,0.5,1.7,0.8,2.9c-6.6,1.8-9.8,2.8-16.3,5c-3.1-9.5-4.7-14.3-7.8-23.8C292,93.8,292.7,93.6,294.2,93.1z M262.5,114.5
			c0.3-1,1-2,2.1-2.9c1.1-0.9,2.4-1.7,4.1-2.4c1.6-0.7,3-1,4.2-1.1c1.2-0.1,2.1,0.1,2.8,0.4c0.7,0.3,1.3,0.9,1.8,1.6
			c0.3,0.4,0.7,1.3,1.2,2.6c0.6,1.5,0.9,2.3,1.5,3.8c1,2.7,1.7,4.3,2.1,5c0.4,0.7,0.9,1.2,1.6,1.7c-1.3,0.5-2,0.7-3.3,1.2
			c-0.6-0.5-1.4-1.8-1.4-1.8c-0.2,0-1.7,2.4-2.6,3.2c-0.9,0.8-2,1.4-3.2,1.9c-2,0.8-3.7,1-5.2,0.6c-1.5-0.4-2.5-1.4-3.1-2.7
			c-0.4-0.8-0.5-1.7-0.4-2.5c0.1-0.9,0.4-1.6,0.9-2.3c0.5-0.7,1.1-1.3,1.9-1.9c0.6-0.4,1.4-0.9,2.6-1.6c2.4-1.3,5.1-2.7,5.3-3.3
			c0-0.2-0.2-0.6-0.3-0.8c-0.5-1.2-1.1-1.9-1.9-2.1c-1.1-0.3-2.4-0.2-4.1,0.5c-1.5,0.6-2.5,1.3-3.1,2.1c-0.5,0.8-0.7,1.8-0.5,3.2
			c-1.3,0.4-2,0.6-3.3,0.9C262.1,116.6,262.2,115.5,262.5,114.5z M249.2,113.2c1-1.3,1.4-1.9,2.4-3.1c1,2.3,1.6,3.5,2.6,5.8
			c1.3-0.6,1.9-0.9,3.2-1.4c0.4,0.9,0.6,1.3,1,2.2c-1.3,0.6-1.9,0.8-3.2,1.4c1.7,3.9,2.6,5.8,4.4,9.7c0.4,0.8,0.6,1.3,0.9,1.5
			c0.2,0.2,0.5,0.3,0.8,0.3c0.3,0,0.7-0.1,1.1-0.3c0.3-0.2,0.8-0.4,1.3-0.7c0.6,0.9,0.9,1.4,1.5,2.3c-0.8,0.5-1.5,1-2.2,1.3
			c-1.1,0.5-2,0.7-2.8,0.7c-0.8,0-1.4-0.3-1.9-0.7c-0.5-0.4-1.1-1.5-1.9-3.1c-1.8-3.8-2.6-5.7-4.4-9.5c-0.9,0.4-1.4,0.6-2.3,1.1
			c-0.4-0.9-0.6-1.3-1-2.2c0.9-0.4,1.4-0.7,2.3-1.1C250.3,115.7,249.9,114.8,249.2,113.2z M233.5,125.9c1.9,3.6,2.8,5.4,4.7,8.9
			c0.7,1.4,1.3,2.4,1.7,2.8c0.6,0.6,1.3,1,2.1,1.1c0.8,0.1,1.7-0.1,2.6-0.5c0.9-0.5,1.6-1.1,2.2-1.9c0.6-0.8,0.8-1.7,0.8-2.6
			c0-0.9-0.4-2-1.1-3.4c-1.7-3.5-2.6-5.2-4.3-8.7c1.2-0.6,1.9-0.9,3.1-1.5c3.2,6.6,4.7,9.8,7.9,16.4c-1.1,0.5-1.6,0.8-2.7,1.3
			c-0.5-1-0.7-1.4-1.2-2.4c-0.5,2.5-1.9,4.4-4.2,5.5c-1,0.5-2.1,0.8-3.1,0.9c-1.1,0.1-2,0-2.7-0.3c-0.7-0.3-1.4-0.8-2-1.5
			c-0.4-0.5-0.9-1.3-1.5-2.4c-2.1-4-3.2-6-5.3-9.9C231.7,126.9,232.3,126.6,233.5,125.9z M211.1,130.6c4.5,7.6,6.8,11.4,11.3,19
			c4.6-2.7,6.9-4.1,11.6-6.6c0.6,1,0.9,1.6,1.4,2.6c-5.9,3.2-8.8,4.9-14.6,8.4c-5.2-8.6-7.8-12.9-13-21.4
			C209.2,131.7,209.8,131.3,211.1,130.6z M185.4,158.3c0.1-1.1,0.6-2.1,1.4-3.3c0.8-1.1,2-2.2,3.4-3.2c1.4-1,2.7-1.7,3.8-2
			c1.1-0.3,2-0.4,2.8-0.2c0.7,0.2,1.4,0.6,2.1,1.1c0.4,0.4,1,1.1,1.7,2.3c0.9,1.4,1.4,2,2.3,3.4c1.6,2.4,2.7,3.8,3.2,4.4
			c0.5,0.6,1.2,1,1.9,1.4c-1.1,0.8-1.7,1.2-2.9,1.9c-0.6-0.3-1.8-1.5-1.8-1.5c-0.2,0-1.1,2.7-1.8,3.7c-0.7,1-1.6,1.8-2.6,2.6
			c-1.7,1.2-3.4,1.8-4.9,1.7c-1.5-0.1-2.7-0.8-3.6-2c-0.5-0.7-0.8-1.5-0.9-2.4c-0.1-0.9,0-1.7,0.4-2.5c0.3-0.8,0.8-1.5,1.4-2.2
			c0.4-0.5,1.2-1.2,2.2-2.1c2.1-1.8,4.3-3.8,4.4-4.3c0-0.2-0.4-0.6-0.4-0.7c-0.7-1-1.5-1.6-2.3-1.6c-1.1-0.1-2.4,0.4-3.8,1.4
			c-1.3,0.9-2.1,1.8-2.5,2.7c-0.3,0.9-0.3,1.9,0.2,3.2c-1.2,0.6-1.8,1-2.9,1.6C185.5,160.5,185.3,159.4,185.4,158.3z M189.9,175.1
			c-1.1,0.8-1.6,1.2-2.6,2c-4.4-5.8-6.6-8.6-11.1-14.4c1.1-0.8,1.6-1.3,2.8-2.1C183.3,166.4,185.5,169.3,189.9,175.1z M174.8,155
			c0.9,1.1,1.3,1.7,2.1,2.8c-1.1,0.8-1.7,1.3-2.8,2.1c-0.9-1.1-1.3-1.7-2.2-2.8C173.1,156.3,173.7,155.9,174.8,155z M167.4,160.8
			c6.2,7.9,9.3,11.8,15.6,19.7c-1,0.8-1.5,1.2-2.6,2.1c-6.3-7.8-9.5-11.7-15.7-19.5C165.8,162.1,166.3,161.6,167.4,160.8z
			 M175.6,186.4c-1,0.8-1.5,1.3-2.5,2.1c-4.7-5.5-7.1-8.3-11.8-13.9c1.1-0.9,1.6-1.3,2.6-2.2C168.6,178.1,171,180.8,175.6,186.4z
			 M162.2,164.8c-0.1,2.6-0.2,3.9-0.2,6.4c-0.9,0.7-1.3,1.1-2.2,1.9c-0.5-2.1-0.7-3.2-1.1-5.3C160,166.6,160.8,166,162.2,164.8z
			 M147.2,188.4c0.2-0.6,0.5-1.3,1-2.2c0.5-0.8,1.2-1.6,2-2.3c1.2-1.1,2.4-1.9,3.5-2.4c1.2-0.5,2.2-0.7,3.1-0.5
			c0.9,0.1,1.8,0.6,2.7,1.3c-0.9,1-1.3,1.5-2.2,2.5c-0.7-0.6-1.6-0.8-2.4-0.7c-0.9,0.1-1.8,0.6-2.8,1.5c-1.2,1.1-1.8,2-2,2.8
			c-0.2,0.8,0,1.4,0.4,1.9c0.3,0.3,0.6,0.5,1,0.5c0.4,0,0.9,0,1.5-0.3c0.3-0.1,1.2-0.6,2.7-1.5c2.2-1.2,3.7-1.9,4.7-2.3
			c1-0.4,1.9-0.4,2.7-0.3c0.9,0.2,1.6,0.7,2.3,1.5c0.7,0.8,1.1,1.7,1.2,2.8c0.1,1.1-0.1,2.2-0.7,3.4c-0.6,1.2-1.4,2.3-2.6,3.3
			c-1.9,1.7-3.6,2.7-5.2,2.9c-1.6,0.2-3.3-0.3-4.9-1.4c0.8-1.1,1.2-1.6,2.1-2.6c1,0.8,2,1.1,3,1c1.1-0.1,2.1-0.7,3.3-1.7
			c1.1-1,1.8-2,1.9-2.9c0.2-0.9,0-1.7-0.5-2.3c-0.5-0.5-1.1-0.7-1.8-0.6c-0.5,0.1-1.6,0.6-3.3,1.5c-2.2,1.2-3.8,2.1-4.8,2.4
			c-1,0.4-1.9,0.4-2.8,0.2c-0.9-0.2-1.6-0.6-2.2-1.3c-0.6-0.6-0.9-1.3-1.1-2.1C147,190.1,147,189.3,147.2,188.4z M132.8,201.9
			c0.6-1.3,1.5-2.5,2.8-3.8c1.2-1.2,2.4-2.1,3.4-2.6c1-0.5,1.9-0.7,2.7-0.7c0.8,0,1.5,0.3,2.2,0.8c0.4,0.3,1.1,0.9,2.1,1.9
			c1.1,1.2,1.7,1.8,2.9,2.9c2,2.1,3.3,3.3,3.9,3.7c0.6,0.4,1.3,0.8,2.1,1c-1,1-1.5,1.4-2.5,2.4c-0.7-0.2-2-1.1-2-1.1
			c-0.2,0.1-0.5,2.9-1.1,4c-0.5,1.1-1.2,2.1-2.1,3c-1.5,1.5-3,2.4-4.5,2.6c-1.5,0.2-2.8-0.3-3.9-1.3c-0.6-0.6-1.1-1.3-1.3-2.2
			c-0.2-0.8-0.3-1.7-0.1-2.5c0.2-0.8,0.5-1.7,1-2.5c0.3-0.6,0.9-1.4,1.8-2.5c1.7-2.2,3.6-4.5,3.5-5.1c0-0.2-0.5-0.5-0.6-0.6
			c-0.9-0.9-1.7-1.3-2.6-1.2c-1.1,0.1-2.3,0.8-3.5,2c-1.1,1.2-1.8,2.2-2,3.1c-0.2,0.9,0.1,1.9,0.8,3.1c-1,0.9-1.6,1.3-2.6,2.1
			c-0.7-1.1-1.1-2.2-1.2-3.2C131.9,204.3,132.2,203.1,132.8,201.9z M122.8,212.3c0.8,0.7,1.2,1.1,2.1,1.8c-0.4-1.5-0.6-2.6-0.4-3.3
			c0.1-0.8,0.5-1.5,1-2.1c0.8-0.9,1.8-1.5,3.1-1.9c0.5,1.1,0.8,1.7,1.3,2.8c-0.9,0.3-1.6,0.8-2.2,1.4c-0.5,0.6-0.8,1.2-0.9,1.9
			c-0.1,0.7,0,1.4,0.4,2.1c0.6,1,1.3,2,2.3,2.8c2.8,2.5,4.3,3.8,7.1,6.4c-0.9,1-1.3,1.5-2.2,2.5c-5.5-4.8-8.2-7.2-13.6-12
			C121.6,213.7,122,213.2,122.8,212.3z M105.2,222.2c1.4-1.7,2.7-2.9,4-3.6c1.2-0.7,2.5-1,3.8-0.9c1.3,0.1,2.4,0.5,3.2,1.3
			c0.8,0.7,1.4,1.6,1.7,2.7c0.3,1.1-0.1,3.7-0.1,3.7c0.1,0.1,2.8-1.5,4.2-1.5c1.4,0,2.7,0.5,3.8,1.4c0.9,0.8,1.5,1.7,2,2.8
			c0.4,1.1,0.6,2.1,0.5,3c-0.1,1-0.4,2-1,3.1c-0.5,1.1-1.4,2.3-2.4,3.6c-2.6,3.2-3.9,4.8-6.4,8.1c-8-6.1-11.9-9.2-19.9-15.3
			C101.2,227.3,102.5,225.6,105.2,222.2z M88.7,255.5c1.5-2.3,3.5-3.7,5.8-4.2c2.3-0.5,4.7,0.2,7.2,1.9c0.1,0.1,0.4,0.3,0.7,0.5
			c-3.5,4.9-5.1,7.4-8.4,12.4c1.7,1,3.4,1.3,4.9,0.9c1.5-0.3,2.7-1.2,3.6-2.6c0.7-1,1-2.1,1-3.1c0-1.1-0.4-2.2-1.2-3.3
			c0.9-1.1,1.4-1.6,2.3-2.6c1.2,1.5,1.8,3.2,1.8,5c0,1.8-0.6,3.6-1.9,5.5c-1.6,2.4-3.5,3.9-5.8,4.4c-2.3,0.5-4.7,0-7.2-1.5
			c-2.6-1.6-4.1-3.7-4.6-6.1C86.6,260.3,87.2,257.9,88.7,255.5z M74.4,279.4c0.8,0.5,1.2,0.7,2.1,1.2c-0.4-1.1-0.6-2.2-0.5-3.3
			c0.1-1.1,0.5-2.2,1.1-3.3c0.9-1.5,2.1-2.7,3.4-3.4c1.4-0.7,2.9-1,4.5-0.8c1.6,0.2,3.1,0.7,4.6,1.7c1.6,1,2.8,2.2,3.7,3.6
			c0.9,1.4,1.3,2.9,1.3,4.5c0,1.6-0.4,3-1.2,4.4c-0.6,1-1.3,1.7-2.1,2.3c-0.8,0.6-1.7,0.9-2.5,1.1c3.1,1.8,4.6,2.6,7.7,4.4
			c-0.7,1.1-1,1.7-1.6,2.9c-8.8-4.9-13.2-7.4-21.9-12.3C73.5,281.1,73.8,280.5,74.4,279.4z M70.1,287.2c6.4,3.5,9.6,5.2,16,8.7
			c-0.6,1.2-1,1.8-1.6,3c-6.4-3.4-9.6-5.1-16.1-8.5C69.1,289,69.5,288.4,70.1,287.2z M64,283.9c1.2,0.7,1.9,1,3.1,1.7
			c-0.7,1.3-1,1.9-1.7,3.1c-1.3-0.7-1.9-1-3.1-1.7C63,285.8,63.4,285.1,64,283.9z M59.9,307.5c3.6,1.7,5.5,2.6,9.1,4.3
			c1.5,0.7,2.5,1.1,3,1.2c0.8,0.2,1.6,0,2.3-0.4c0.7-0.4,1.3-1.1,1.7-2c0.4-0.9,0.6-1.9,0.6-2.9c0-1-0.3-1.9-0.9-2.6
			c-0.6-0.7-1.5-1.4-2.9-2.1c-3.5-1.7-5.2-2.6-8.7-4.4c0.6-1.3,1-1.9,1.6-3.2c6.5,3.3,9.7,5,16.2,8.3c-0.5,1.1-0.8,1.6-1.4,2.7
			c-1-0.5-1.4-0.7-2.4-1.2c1.1,2.3,1.1,4.7,0,7.1c-0.5,1.1-1.2,2-2,2.7c-0.8,0.8-1.6,1.2-2.4,1.4c-0.8,0.2-1.6,0.2-2.5,0
			c-0.6-0.1-1.5-0.5-2.7-1c-4.1-1.9-6.1-2.8-10.2-4.7C59,309.5,59.2,308.8,59.9,307.5z M51.9,324.5c1-2.4,2.7-3.9,5-4.5
			c-0.9-0.4-1.3-0.6-2.2-1c0.5-1.2,0.8-1.8,1.3-2.9c9.2,4.1,13.8,6.1,23,10.2c-0.5,1.2-0.8,1.8-1.3,3.1c-3.3-1.4-4.9-2.1-8.2-3.5
			c0.4,0.8,0.6,1.7,0.7,2.7c0,1.1-0.1,2.1-0.6,3.1c-0.9,2.2-2.5,3.8-4.7,4.8c-2.2,1-4.8,0.9-7.6-0.1c-1.7-0.7-3.1-1.6-4.2-2.8
			c-1.1-1.2-1.7-2.6-1.9-4.2C51.1,327.6,51.3,326,51.9,324.5z M24.4,462.9h25v3H29.9c0.7,1,1.4,2.1,2.1,3.3c0.7,1.2,1.2,2.7,1.6,3.7
			h-3c-0.8-2-1.8-3.4-2.9-4.7c-1.1-1.3-2.3-2.4-3.3-2.9V462.9z M49.4,514.6c-1,0-1.4-0.1-2.1-0.4c-1.1-0.4-2.2-1.1-3.3-2
			c-1.1-0.9-2.3-2.3-3.8-4c-2.2-2.7-4-4.5-5.3-5.5c-1.3-1-2.5-1.4-3.7-1.4c-1.2,0-2.2,0.4-3.1,1.3c-0.8,0.9-1.3,2-1.3,3.4
			c0,1.5,0.4,2.7,1.3,3.5c0.9,0.9,2.1,1.3,3.7,1.3l-0.3,3.2c-2.4-0.2-4.1-1-5.4-2.4c-1.2-1.4-1.8-3.3-1.8-5.7c0-2.4,0.7-4.3,2-5.7
			c1.3-1.4,3-2.1,4.9-2.1c1,0,2,0.2,2.9,0.6c1,0.4,2,1.1,3,2c1.1,0.9,2.5,2.5,4.4,4.7c1.5,1.8,2.6,3,3.1,3.5c0.6,0.5,1.6,1,1.6,1.3
			v-12.4h3V514.6z M47.2,492c-2.1,1.6-5.5,2.5-10.2,2.5c-3,0-5.3-0.3-7.1-0.9c-1.8-0.6-3.2-1.5-4.2-2.7c-1-1.2-1.5-2.7-1.5-4.5
			c0-1.3,0.3-2.5,0.8-3.5c0.5-1,1.3-1.8,2.3-2.5c1-0.7,2.3-1.2,3.7-1.6c1.5-0.4,3.4-0.6,5.9-0.6c2.9,0,5.3,0.3,7.1,0.9
			c1.8,0.6,3.2,1.5,4.2,2.7c1,1.2,1.5,2.7,1.5,4.5C49.8,488.8,49,490.7,47.2,492z M47.9,452.7c-1.3,1.4-3,2.3-5.1,2.5l-0.4-3.1
			c1.7-0.4,3-1,3.8-1.8c0.8-0.8,1.1-1.9,1.1-3.1c0-1.4-0.5-2.7-1.5-3.7c-1-1-2.2-1.5-3.7-1.5c-1.4,0-2.6,0.5-3.5,1.4
			c-0.9,0.9-1.4,2.1-1.4,3.5c0,0.6,0.1,1.3,0.3,2.2l-2.7-0.3c0-0.2,0-0.4,0-0.5c0-1.3-0.3-2.5-1-3.5c-0.7-1-1.7-1.6-3.2-1.6
			c-1.1,0-2.1,0.4-2.8,1.1c-0.7,0.8-1.1,1.7-1.1,2.9c0,1.2,0.4,2.2,1.1,3c0.7,0.8,1.9,1.3,3.4,1.5l-0.5,3.1
			c-2.1-0.4-3.6-1.2-4.8-2.6c-1.1-1.3-1.7-3-1.7-5c0-1.4,0.3-2.6,0.9-3.8c0.6-1.1,1.4-2,2.4-2.6c1-0.6,2.1-0.9,3.2-0.9
			c1.1,0,2.1,0.3,2.9,0.9c0.9,0.6,1.6,1.4,2.1,2.6c0.3-1.5,1-2.6,2.1-3.4c1.1-0.8,2.4-1.2,4-1.2c2.2,0,4,0.8,5.5,2.4
			c1.5,1.6,2.3,3.6,2.3,6C49.8,449.5,49.2,451.3,47.9,452.7z M33.9,355.2c2.6-8.3,4-12.4,7-20.4c1.1,0.4,1.7,0.6,2.8,1
			c-2.4,6.5-3.6,9.8-5.7,16.5c2.9,1,4.4,1.4,7.3,2.4c2-6.1,3-9.2,5.3-15.2c1.1,0.4,1.7,0.6,2.8,1c-2.2,6-3.2,9-5.2,15.1
			c3.3,1.1,4.9,1.6,8.1,2.6c2.1-6.6,3.3-9.9,5.7-16.3c1.1,0.4,1.7,0.6,2.8,1c-2.9,7.8-4.3,11.7-6.8,19.7
			C48.3,359.8,43.5,358.2,33.9,355.2z"/>
	</g>
</g>
<g id="Layer_3">
	<g>
		<path class="st0" d="M415.6,29.9c-4.6,33-19.3,119.4-64.5,311.2c-62.3,264-154,320.7-195.3,355c-41.3,34.3-108.1,55.3-108.1,55.3
			c172.6-21.8,369.2,130.7,369.2,130.7l0-861.4C416.5,23,416.1,26.1,415.6,29.9z"/>
		<path class="st1" d="M418,29.9c4.6,33,19.3,119.4,64.5,311.2c62.3,264,154,320.7,195.3,355c41.3,34.3,108.1,55.3,108.1,55.3
			c-172.6-21.8-369.2,130.7-369.2,130.7l0-861.4C417.1,23,417.5,26.1,418,29.9z"/>
	</g>
</g>
<g id="Layer_7">
	<path class="st2" d="M315.8,588.3c0,0-0.3-13.7,4.4-29c4.7-15.3,15.3-36.4,17.1-56.4c1.9-19.9,7.5-32.1-7.8-50.5
		c-15.3-18.4-36.1-38-40.2-54.2c-4-16.2-4.7-21.8-4.7-21.8s-38.3-25.5-32.1-57c6.2-31.5,24.9-39.9,40.5-42.7
		c15.6-2.8,18.1-1.6,18.1-1.6s15-25.5,15.6-30.5c0.6-5-8.1-28,8.4-35.5c16.5-7.5,22.7-1.2,30.2,1.2c7.5,2.5,18.7,1.6,29.9,2.5
		c11.2,0.9,21.8,7.5,25.2,8.1c3.4,0.6,14.6-1.6,15.9-1.6c1.2,0,4.7-4.4,12.5-2.2c7.8,2.2,10.6,7.2,10.9,13.7
		c0.3,6.5,2.8,11.8,6.2,23.1c3.4,11.2,5,33.3,3.1,39.3c-1.9,5.9,0,10.6,0,10.6s34.9,13.4,64.2,42.4c29.3,29,24.3,21.5,30.5,33.6
		c6.2,12.2,7.8,38,7.2,48.6c-0.6,10.6-19.9,13.1-40.2,6.9c-20.3-6.2-24-7.2-24-7.2S495.3,448.1,494,460c-1.2,11.8,0.9,24,4.7,30.8
		c3.7,6.9,9.3,10.3,9.3,10.3v27.4c0,0-5.6,3.4,0,9c5.6,5.6,31.2,29.6,24.6,52c-6.5,22.4-48.6,14.3-48.6,14.3s-46.7-2.8-53.3,0
		c-6.5,2.8-38.3,5.3-62.6,5.3C343.9,609.2,320.5,610.8,315.8,588.3"/>
	<g>
		<path class="st3" d="M352.6,304.8c0,0-12.2,5-15.9,6.9c-3.7,1.9-10,7.5,7.5,13.7c17.4,6.2,15.9,7.2,38,6.2
			c22.1-0.9,35.5,1.2,29.3-4.4c-6.2-5.6-14.3-14-15.6-9.3c-1.2,4.7,0,3.4-9.3-0.6C377.2,313.2,377.8,307.6,352.6,304.8"/>
		<path class="st3" d="M468.2,311.4c0,0,0.9,6.5-3.7,8.1c-4.7,1.6-4.4,5.3,2.5,8.7c6.9,3.4,18.7,8.1,28,9.7
			c9.3,1.6,16.8,2.8,16.2-0.3c-0.6-3.1-0.9-8.4-15.6-15.3C480.9,315.4,489.7,315.1,468.2,311.4"/>
		<path class="st3" d="M295.3,373.1c0,0,24.3,45.5,27.7,53c3.4,7.5,6.5,10.9,2.5,10.3c-4.1-0.6-10.9-10.3-21.5-24.9
			C293.4,396.7,286.8,374.9,295.3,373.1"/>
		<path class="st3" d="M346,450.9c0,0,5.6,6.5,10.6,15.3c5,8.7,3.1,13.4,6.9,12.5c3.7-0.9,1.2-13.1-3.1-19.3
			C356,453.1,351.3,450,346,450.9"/>
		<path class="st3" d="M378.1,470.3c0,0,2.8,12.5,7.8,17.8c5,5.3,10.3,7.2,12.8,7.8c2.5,0.6,8.7-0.6,7.5-5.3
			c-1.2-4.7-4.4-11.5-13.4-16.5C383.7,469,378.1,470.3,378.1,470.3"/>
		<g>
			<path class="st4" d="M357.9,246.9c-15.8,12.5-3.3,29.5,1.2,33.2c4.6,3.7,3.3,0.4-1.7-8.3C352.5,263.1,357.9,246.9,357.9,246.9z"
				/>
			<path class="st4" d="M394.4,235.3c-9.6,0.8-11.6,6.6-11.6,6.6c12.5-5,18.3-2.9,21.2-4.2C406.9,236.5,404,234.4,394.4,235.3z"/>
			<path class="st4" d="M351.2,243.6c2.5,0.4,15.4-9.1,15.4-9.1C355.8,231.1,348.7,243.2,351.2,243.6z"/>
			<path class="st4" d="M392.3,245.2l14.5,16.6l19.9,0.8c0,0-11.2-15-15.4-16.6C407.3,244.4,397.7,244.4,392.3,245.2z M409.8,253.3
				c1.3,0,2.4,1.1,2.4,2.4c0,1.3-1.1,2.4-2.4,2.4c-1.3,0-2.4-1.1-2.4-2.4C407.5,254.4,408.5,253.3,409.8,253.3z"/>
			<path class="st4" d="M428.1,254c2.5,4.2,3.7,2.1,3.7,2.1s6.6-5.4-12-10.8C419.8,245.2,425.6,249.8,428.1,254z"/>
			<path class="st4" d="M358.7,218.2c-8.3-3.7-14.1-4.6-19.1-1.7c0,0-2.9,14.1,1.7,15.8c4.6,1.7,9.6-2.9,15-5.4
				C361.6,224.5,367,222,358.7,218.2z"/>
			<path class="st4" d="M389.4,257.3c0,0,2.5,10.4,13.3,9.6C402.7,266.8,401.9,263.5,389.4,257.3z"/>
			<path class="st4" d="M367.4,285.9c14.1,10.4,28.7,0,29.9,0C398.6,285.9,366.1,285,367.4,285.9z"/>
			<path class="st3" d="M449.9,261.1c0,1.3,1.1,2.4,2.4,2.4c1.3,0,2.4-1.1,2.4-2.4c0-1.3-1.1-2.4-2.4-2.4
				C451,258.8,449.9,259.8,449.9,261.1z"/>
			<path class="st3" d="M458.2,251.2c0,0,0.6,18.1,1.6,19.9c0.9,1.9,4.1,5.6,5.9,1.2C467.5,268.1,466.9,241.6,458.2,251.2z"/>
			<path class="st3" d="M456.9,284.9c0,0-5.6,3.7-4.4,6.5s5.6,4.7,10,5C466.9,296.7,472.8,287.7,456.9,284.9z"/>
			<path class="st3" d="M436.2,295.8c-17.4-0.4-34.1,7.1-34.1,7.1s1.2-5,11.2-7.9c10-2.9,32.4,0.4,36.1-1.2c3.7-1.7,1.2-6.2-3.3-7.5
				c-4.6-1.2-12,0.8-19.1-5.8c-7.1-6.6-9.6-8.7-9.6-8.7s14.5,1.2,23.7,3.7c9.1,2.5,15,0.8,15,0.8s3.7-1.7-1.7-4.2
				c-5.4-2.5-15.8-7.9-15-10.4c0.8-2.5,5.4-9.6,11.6-10.4c6.2-0.8,10.4-3.7,8.3-8.3c-2.1-4.6-5.8-5.8-6.2-12.9
				c-0.4-7.1-5.8-9.1-8.3-10c-2.5-0.8-2.5,2.9-0.8,6.2c1.7,3.3-9.1-3.7-12.5-3.7c-3.3,0-7.5,1.7-1.7,7.5c5.8,5.8,1.7,7.5,1.7,7.5
				s-22-19.5-32-21.6c-10-2.1-20.8,1.2-24.1,2.9l-3.3,1.7c0,0-12-15-25.3-12c-13.3,2.9-17.4,10.8-18.3,22c0,0,9.1,6.2,5.8,10.4
				c-3.3,4.2-9.6,8.7-4.6,20.8c5,12,12.9,20.8,15,25.8c2.1,5,5.4,3.3,12.9,5c7.5,1.7,15,7.9,22.8,12.5c7.9,4.6,11.6,6.6,12,4.2
				c0.4-2.5,0.4-10.8,0.4-10.8s2.9,11.6,6.2,13.7c3.3,2.1,15.4,3.7,22,1.7c6.6-2.1,11.6-7.5,23.3-8.3c11.6-0.8,15.8,0.4,18.3-1.7
				C465.3,301.6,453.6,296.2,436.2,295.8z M431.8,256c0,0-1.2,2.1-3.7-2.1c-2.5-4.2-8.3-8.7-8.3-8.7
				C438.4,250.6,431.8,256,431.8,256z M426.8,262.7l-19.9-0.8l-14.5-16.6c5.4-0.8,15-0.8,19.1,0.8
				C415.6,247.7,426.8,262.7,426.8,262.7z M394.4,235.3c9.6-0.8,12.5,1.2,9.6,2.5c-2.9,1.2-8.7-0.8-21.2,4.2
				C382.8,241.9,384.9,236.1,394.4,235.3z M341.2,232.4c-4.6-1.7-1.7-15.8-1.7-15.8c5-2.9,10.8-2.1,19.1,1.7
				c8.3,3.7,2.9,6.2-2.5,8.7C350.8,229.4,345.8,234,341.2,232.4z M359.1,280.1c-4.6-3.7-17-20.8-1.2-33.2c0,0-5.4,16.2-0.4,24.9
				C362.4,280.5,363.7,283.9,359.1,280.1z M351.2,243.6c-2.5-0.4,4.6-12.5,15.4-9.1C366.6,234.4,353.7,244,351.2,243.6z
				 M397.3,285.9c-1.2,0-15.8,10.4-29.9,0C366.1,285,398.6,285.9,397.3,285.9z M389.4,257.3c12.5,6.2,13.3,9.6,13.3,9.6
				C391.9,267.7,389.4,257.3,389.4,257.3z"/>
			<path class="st3" d="M409.8,258c1.3,0,2.4-1.1,2.4-2.4c0-1.3-1.1-2.4-2.4-2.4c-1.3,0-2.4,1.1-2.4,2.4
				C407.5,257,408.5,258,409.8,258z"/>
		</g>
		<path class="st3" d="M557.9,376.2c-7.5-10-28-31.8-34.3-33.6c-6.2-1.9-22.7-3.1-29.6-0.9c-6.9,2.2-14.3,7.2-30.5,2.5
			c-16.2-4.7-32.7-11.8-40.8-10.6c-8.1,1.2-24,2.5-19.3,8.7c4.7,6.2,14.3,12.1,9,10.9c-5.3-1.2-13.1,0.3-18.1-6.5
			c-5-6.9-11.8-8.4-22.1-8.7c-10.3-0.3-17.1-1.2-19,0.3c-1.9,1.6-8.7,7.2-8.7,3.4c0-3.7,3.1-6.2,3.1-6.2s-4.1-1.2-5.6,2.2
			c-1.6,3.4-5,7.8-5,4.7c0-3.1,3.1-10,3.1-10s-6.2,4.4-7.2,5.9c-0.9,1.6-1.6-2.8-2.2-6.2c-0.6-3.4-5,2.2-5,2.2s1.6-8.4-0.3-14.3
			c-1.9-5.9-4.4-9.7-13.7-14c-9.3-4.4-23.1-10-23.1-10s8.7-5.9,19.3-1.2c10.6,4.7,19,11.5,21.2,7.5c2.2-4-12.5-16.8-22.1-18.1
			c-9.7-1.2-24-1.2-41.1,10.9c-17.1,12.1-9.3,43.6,3.7,57.3c13.1,13.7,17.4,17.1,18.1,13.1c0.6-4-4.7-12.8-4.7-12.8
			s9,11.5,17.4,15.6c8.4,4.1,17.1,6.5,23.7,5.9c6.5-0.6,12.5-2.5-0.3-9.3l-20.6-0.9c0,0-7.5-4.4-8.1-8.7c-0.6-4.4,1.6-9.3,10-5.9
			c8.4,3.4,17.8,10.9,26.5,15c8.7,4,28.7,14.6,42.4,17.1c13.7,2.5,27.4,1.2,32.4,3.1c5,1.9,12.8,3.4,25.9-0.3
			c13.1-3.7,37.4-8.1,46.7-12.8c9.3-4.7,9.3-10.3,14.3-10.3c5,0,7.2,3.4,16.8,4.7c9.7,1.2,10.3-2.5,18.1,2.8
			c7.8,5.3,23.1,18.7,26.8,18.7C558.8,387.1,565.4,386.1,557.9,376.2z M392,349.7c0,0,0.3,2.2-9.7,2.8c-10,0.6-18.7-9-18.7-9
			C377,345,392,349.7,392,349.7z M303.5,334.4c-5.9,0-11.2-3.7-13.4-4.4c-2.2-0.6-3.1,4.4-7.5,10c-4.4,5.6-7.5,5.3-7.5,5.3l0.6-12.8
			c0,0,5.3,0.6,6.2-2.8c0.9-3.4-9.3-15.3-9.3-15.3s13.7,9,19.6,10.9c5.9,1.9,14.6,0.9,19.6,1.9c5,0.9,7.5,2.2,7.5,2.2
			S309.4,334.4,303.5,334.4z M354.9,364.3c-9.7-3.4-36.8-21.8-36.8-21.8s2.5,0.3,10,3.7c7.5,3.4,16.2,6.9,29.6,9.7
			c13.4,2.8,44.5,17.8,44.5,17.8C396.6,373,364.5,367.7,354.9,364.3z M417.8,382.4c0.3,1.9-6.2,0.6-2.8-2.5
			c0.7-0.7,11.8-7.5,18.7-8.4c6.9-0.9,8.1-1.2,8.1-1.2S417.5,380.5,417.8,382.4z M467,360.9c-8.7,0.6-22.4,2.8-33.6-5.9
			c0,0,26.2,1.9,34.9,0c8.7-1.9,14.3-5,14.3-5S475.8,360.3,467,360.9z"/>
		<path class="st3" d="M556.6,398.3c-8.4-10-25.2-21.8-33.6-24.9c-8.4-3.1-21.2-3.7-21.2-3.7c-3.7-0.9-0.3,5.3-5,5.6
			c-4.7,0.3-3.1,1.9-5,6.5c-1.9,4.7-5.3,6.9,0.6,10.6c5.9,3.7,19.3,11.5,26.8,18.4c7.5,6.9-10.3-4.4-16.2-9.3
			c-5.9-5-18.1-8.7-23.4-9.3c-5.3-0.6-10.9,2.2-6.5,4.4c4.4,2.2,23.7,20.3,38.9,27.4c15.3,7.2,20.6,4.4,30.5,6.2
			c10,1.9,24,1.6,24,1.6S565,408.3,556.6,398.3z M524.5,389.7c-4.7-2.2-17.8-10-17.8-10c2.5-4,11.8,0.6,17.4,4.4
			C529.8,387.9,529.2,391.9,524.5,389.7z M550,413.4c-4-5.6-12.8-10-12.8-10c6.5-4.1,19.6,10.3,19.3,14.3
			C556.3,421.8,554.1,419,550,413.4z"/>
		<path class="st3" d="M482.5,409.8c-10-6.2-22.1-15.3-23.4-11.5c-1.2,3.7,0.3,23.4,0.3,30.5c0,7.2-4.7,12.2-4.7,12.2
			s2.8-30.8-0.6-30.8c-3.4,0-7.2,7.5-13.7,9.7c-6.5,2.2-23.4,4.7-25.9,1.2c-2.5-3.4-5.9-10.6-5.9-10.6s9,4.1,20.6,1.9
			c11.5-2.2,15.3-3.7,15.6-7.2c0.3-3.4-1.6-6.2-5.9-8.7c-4.4-2.5-9.3-3.7-17.8-1.9c-8.4,1.9-17.8,3.7-29,5.3
			c-11.2,1.6-14.3-0.3-14.3-0.3s-1.2-10-1.2-13.4c0-3.4-11.2-5.6-16.5-6.2c-5.3-0.6-9-0.6-8.1,1.9c0.9,2.5,22.7,9.3,15.3,8.4
			c-7.5-0.9-13.1-3.7-21.5-5.3c-8.4-1.6-11.2-4.7-12.8,0.6c-1.6,5.3-0.9,10.3-2.8,11.8c-1.9,1.6-3.7-5-3.7-12.8c0,0-8.1-0.9-7.5,9.3
			c0.6,10.3-0.3,17.1,13.7,25.5c14,8.4,28.4,15.9,41.7,27.1c13.4,11.2,25.9,20.9,30.5,29.6c4.7,8.7,3.7,13.4,3.7,17.1
			c0,3.7,1.9,7.5,6.9,5c5-2.5,5.3-5.9,8.7-5.6c3.4,0.3,5,5,8.1,6.9c3.1,1.9,10.3,2.5,15.3,0.9c5-1.6,9.3,2.1,9-3.9
			c-0.3-5.9-0.6-29.7-0.6-29.7h1.6c0,0,2.5,18.8,4.4,22.6c1.9,3.7,1.2,9.1,8.1,9.7c6.9,0.6,9,1,9-2.1c0-3.1-0.6-26.5-0.6-26.5
			s5,19,7.2,22.4c2.2,3.4,4,3.1,4,3.1s0.6-36.4,0.3-43c-0.3-6.5,3.1-15.3,6.5-20.6C499.9,427.3,492.5,416,482.5,409.8z M363.7,399.4
			c0,0-5-0.6-11.2-1.9c-6.2-1.2-11.5-7.8-11.5-7.8C353.4,389.1,363.7,399.4,363.7,399.4z M340.7,399.7c11.5,0.9,21.2,9,21.2,9
			s-6.5-0.3-11.8-2.2C344.7,404.7,340.7,399.7,340.7,399.7z M414.2,453.3c-3.7,0.3-2.8,16.2-2.8,16.2s-5.9-5-10.9-12.2
			c-5-7.2-31.8-29.3-33-32.4c-1.2-3.1-6.9-1.9-11.5-3.7c-4.7-1.9-10.3-8.1-10.3-8.1s12.1-0.6,15.3,0.3c3.1,0.9,5.9,5.9,13.1,12.5
			c7.2,6.5,10.3,9,17.8,10.6c7.5,1.6,18.1-8.1,18.1-8.1s-3.4,5.6-2.2,12.8c1.2,7.2,15.3,10,15.3,10S417.9,453,414.2,453.3z
			 M455.3,458.3c-5.6,0-19.3-7.8-17.4-8.4c1.9-0.6,9.7-7.8,9.7-7.8c11.8,6.2,11.2,12.5,11.2,12.5S460.9,458.3,455.3,458.3z
			 M480.6,444.2c-5.9,15.3-18.1,21.2-11.8,13.1c1-1.3,10-13.1,9-23.4c-0.9-10.3-10.6-21.8-10.6-21.8s0.9-2.8,5-0.6
			C476.2,413.7,486.5,429,480.6,444.2z"/>
		<path class="st3" d="M528.9,569c-7.8-16.8-16.8-23.4-22.1-30.2c-5.3-6.9-4.1-7.8-4.1-7.8s-13.3,2.8-19.2,3.4
			c-5.9,0.6-10.2,0.3-10.2,0.3v-15c0,0,15.5,1.6,19.5-0.3c4.1-1.9,13.5-6.9,13.8-10.6c0.3-3.7-0.3-7.2-0.3-7.2s-15.6,2.8-27.1,2.8
			c-11.5,0-42,0.6-61-1.6c-19-2.2-44.5-7.2-59.8-10.6c-15.3-3.4-19.9-4.4-19.9-4.4s2.5,9.3,20.3,16.8c17.8,7.5,47,10.3,48.9,10.9
			c1.9,0.6,9.7,1.6,9.7,1.6l1.9,15.6c0,0-50.2-1.2-76.3-15.6c0,0-14,15-14.6,28.3c-0.6,13.4,1.6,20.9,4.4,24.9
			c2.8,4.1,0.9,5.3-4,5.3s-10.9-1.2-11.2,6.5c-0.3,7.8-0.3,12.5,9,18.1c9.3,5.6,15.6,7.8,32.1,8.1c16.5,0.3,33.6,0,35.5-2.8
			c1.9-2.8,7.8-34.3,13.7-44.2c5.9-10,17.8-23.4,17.8-23.4s10.9,5.6,14.3,6.2c3.4,0.6,1.6,0.9,1.6,0.9s-20.9,44.9-19.9,51.7
			c0.9,6.9,1.6,7.5,5.9,6.2c4.4-1.2,33.6-3.7,39.3-3.4c5.6,0.3,38.9,8.7,51.1,1.6C529.8,594.2,536.7,585.8,528.9,569z M465.7,512.4
			c0,0,12.2-0.6,21.5-2.5c9.3-1.9,11.5-3.4,11.5-3.4s-0.9,5.9-9.3,7.2C481,514.8,452.6,513.6,465.7,512.4z M413.1,511.1
			c-14-0.6-56.4-10.6-56.4-10.6s17.8,0.9,42.4,5.9c24.6,5,33.6,3.1,33.6,3.1S427.1,511.7,413.1,511.1z M446.4,540.4
			c0,0-2.5-1.2-9.3-3.1c-6.9-1.9-11.2-1.2-11.2-1.2l-6.9-16.5c21.2-12.1,28.7,4.7,28.7,4.7L446.4,540.4z M447,513.9
			c-1.6-1.9-5.9-3.1-5.9-3.1c11.8-0.6,13.1,2.8,12.2,2.8C452.3,513.6,448.6,515.8,447,513.9z M470.1,595.8c-1.9-0.6-5-3.1-5-3.1
			s-8.1-34.9-10-45.5c-1.9-10.6-2.7-22.5-2.7-22.5l-2.3-6.9h13.1c1.9,0,0.6,11.3,1.9,15l1.4,3.8l-6.1,2.5v3.7H472
			c0,0,10.6,23.7,13.1,39.3l2.5,15.6C487.5,597.7,472,596.5,470.1,595.8z"/>
	</g>
</g>
<g id="Layer_5">
	<g class="st5">
		<g>
			<defs>
				<rect id="SVGID_1_" x="254.3" y="633.8" width="326.5" height="190"/>
			</defs>
			<clipPath id="SVGID_2_">
				<use xlink:href="#SVGID_1_"  style="overflow:visible;"/>
			</clipPath>
			<path class="st6" d="M255.7,633.8h91.4c1.4,0.2,10.1,8.6,25.9,25.2v46.8l-20.2,20.9c6.4,5.8,13.1,12.7,20.2,20.9v50.4l-25.9,25.2
				h-19.4c-1.7,0-3.8,0.2-6.5,0.7l-1.4-0.7l-4.3,0.7c-1.1,0-2-0.2-2.9-0.7c-1,0.5-1.7,0.7-2.2,0.7c-1,0-1.4-0.2-1.4-0.7l-5,0.7h-5.8
				c-0.5,0-0.7-0.2-0.7-0.7l-1.4,0.7h-3.6c-4.1,0-8.4-0.2-13-0.7c-1.7,0.5-2.6,0.7-2.9,0.7c-3.1-0.5-6.2-0.7-9.4-0.7h-0.7
				c-1.6,0-2.8,0.2-3.6,0.7c-5.8-0.5-8.6-1.2-8.6-2.2V647.5c0-1.1,0.2-2,0.7-2.9c-0.5-0.8-0.7-1.8-0.7-2.9v-6.5
				C254.4,634.3,254.9,633.8,255.7,633.8 M255.7,760.5v1.4c0.1,1,0.6,1.4,1.4,1.4h0.7c1,0,1.4-0.5,1.4-1.4v-0.7c0-1-0.5-1.4-1.4-1.4
				C256.9,760.2,256.2,760.5,255.7,760.5 M257.9,749.7c0,1.6-0.2,2.8-0.7,3.6l1.4,0.7h0.7l0.7-3.6v-0.7H257.9z M260,784.9
				c-0.5,2.5-0.7,4-0.7,4.3c1,1.4,1.4,3.1,1.4,5c1,0,2.4-2.2,4.3-6.5l-3.6-2.9H260z M262.2,754c0,1-0.2,1.4-0.7,1.4l0.7,3.6v0.7
				l-0.7,3.6c0.5,0,0.7,0.2,0.7,0.7H260v0.7h0.7c3.5-0.6,6.1-1.8,7.9-3.6c0-3-1.9-5.4-5.8-7.2H262.2z M274.4,643.9v1.4
				c0.1,1,0.6,1.4,1.4,1.4v-1.4C275.9,644.3,275.4,643.9,274.4,643.9 M283.1,793.6c0,0.5-0.2,1.2-0.7,2.2l1.4,0.7v-2.9H283.1z
				 M299.6,643.1l-0.7,2.9h0.7c1,0,1.4-0.5,1.4-1.4v-1.4H299.6z M301.1,787.8v2.9h0.7l0.7-2.9H301.1z M302.5,808.7v2.2
				c1,0,1.4-0.5,1.4-1.4v-0.7H302.5z M303.9,675.5v30.2h18.7v-14.4c1.7-2.4,3.4-3.6,5-3.6c0-1.6-0.7-3-2.2-4.3l-1.4,0.7
				c-1,0-1.4-0.5-1.4-1.4v-7.2H303.9z M303.9,747.5v32.4c0.1,1,0.6,1.4,1.4,1.4h18v-33.8H303.9z M306.1,785.7c0,1.4-0.7,2.2-2.2,2.2
				v0.7c1,1.2,1.4,2.2,1.4,2.9h1.4c0.5-3.5,0.7-5.4,0.7-5.8H306.1z M304.7,641.7v1.4l1.4,2.2c-1,0.1-1.4,0.6-1.4,1.4
				c0.1,1,0.6,1.4,1.4,1.4h1.4v-3.6c-1-1.2-1.4-2.2-1.4-2.9H304.7z M304.7,797.9h0.7V795h-0.7V797.9z M309.7,645.3v2.2h1.4v-0.7
				C311.1,645.8,310.7,645.3,309.7,645.3 M311.9,792.9v0.7h0.7c1,0,1.4-0.5,1.4-1.4v-0.7h-0.7C312.3,791.5,311.9,792,311.9,792.9
				 M314.7,787.1v1.4c0.7,0,1.7-1,2.9-2.9v-0.7h-0.7C316.2,784.9,315.5,785.7,314.7,787.1 M316.2,646.7l1.4,0.7h1.4
				c1,0,1.4-0.5,1.4-1.4v-1.4l-0.7-1.4C317.4,643.6,316.2,644.8,316.2,646.7 M316.9,666.2v0.7c0.1,1,0.6,1.4,1.4,1.4h2.2l1.4-0.7
				c-0.7-1.9-1.4-2.9-2.2-2.9h-1.4C317.4,664.9,316.9,665.3,316.9,666.2 M319.8,783.5c0,1.1-0.2,2-0.7,2.9l1.4,0.7h0.7v-3.6H319.8z
				 M320.5,788.5c-0.5,2.5-0.7,4-0.7,4.3l1.4,0.7h0.7c0-1,0.2-1.4,0.7-1.4c-1-1.6-1.4-2.8-1.4-3.6H320.5z M323.4,643.9v2.9h0.7
				c1,0,1.4-0.5,1.4-1.4c0-1-0.5-1.4-1.4-1.4H323.4z M325.5,646.7c0.5,0.8,0.7,1.8,0.7,2.9h0.7c1,0,1.4-0.5,1.4-1.4v-1.4H325.5z
				 M328.4,689.2l0.7,3.6h1.4v-3.6H328.4z M332.7,646.7c0.1,1,0.6,1.4,1.4,1.4h0.7l1.4-0.7c-0.5-1-0.7-1.7-0.7-2.2h-1.4
				C333.2,645.4,332.7,645.9,332.7,646.7 M337.8,646.7c0.1,1,0.6,1.4,1.4,1.4l0.7-1.4H337.8z"/>
			<path class="st6" d="M385.2,633.8c5.5,0,9.4,0.2,11.5,0.7c7.8-0.5,14.8-0.7,20.9-0.7h13.7c1,0.1,1.4,0.6,1.4,1.4v113
				c0,0.5-0.2,0.7-0.7,0.7l0.7,1.4v25.9h41.7c1,0.1,1.4,0.6,1.4,1.4v1.4l-1.4,5c1,1.6,1.4,2.8,1.4,3.6c-0.5,2.5-0.7,4-0.7,4.3
				l0.7,1.4c-0.5,2.4-1,3.6-1.4,3.6l1.4,18.7c-0.5,1-0.7,1.7-0.7,2.2c0.5,1.9,0.7,3.6,0.7,5l-1.4,0.7h-82.1c0-2.4-0.5-3.6-1.4-3.6
				h-0.7v0.7c0.5,1,0.7,1.7,0.7,2.2l-1.4,0.7h-5c-1,0-1.4-0.5-1.4-1.4v-28.8h1.4v-2.2H383V635.2C383,634.3,383.7,633.8,385.2,633.8
				 M387.3,747.5v1.4c0.1,1,0.6,1.4,1.4,1.4l0.7-1.4L387.3,747.5z M387.3,770.5l3.6,0.7c1,0,1.4-0.5,1.4-1.4v-0.7h-3.6
				C387.8,769.2,387.3,769.7,387.3,770.5 M390.2,743.9v0.7l0.7,1.4c0.8-0.5,1.8-0.7,2.9-0.7v-0.7l-0.7-1.4
				C392.2,743.7,391.3,743.9,390.2,743.9 M396,745.3c0,1.4-1.7,2.2-5,2.2v0.7c0,1,1.7,1.7,5,2.2v2.2c-1.4,0-2.2,0.5-2.2,1.4l2.9,1.4
				c0-2.3,0.5-4,1.4-5c-0.5-0.8-0.7-1.8-0.7-2.9c0.5,0,0.7-0.2,0.7-0.7L396,745.3z M390.9,764.1v0.7c0,0.7,0.7,1.4,2.2,2.2l1.4-0.7
				c-0.5-1-0.7-1.7-0.7-2.2H390.9z M390.9,795v0.7c0.5,1,0.7,1.7,0.7,2.2h2.2V795H390.9z M392.4,756.1l-0.7,1.4v1.4h2.2v-1.4
				C393.8,756.6,393.3,756.1,392.4,756.1 M392.4,697.1v3.6c0,1,0.7,1.4,2.2,1.4l-0.7,3.6v0.7h0.7c1.1-1.9,2.5-2.9,4.3-2.9
				c0.7,0,1.4-0.7,2.2-2.2c-2.6,0-4.8-1.7-6.5-5C393.6,696.9,392.8,697.1,392.4,697.1 M393.1,737.4c0,0.7,1,1.7,2.9,2.9h0.7
				c0.7,0,1.4-0.7,2.2-2.2v-1.4h-2.2L393.1,737.4z M393.8,773.4v2.2h1.4v-0.7C395.2,773.9,394.8,773.4,393.8,773.4 M394.5,797.9
				c1.4,0,2.2,1,2.2,2.9h0.7V800c-0.5-0.8-0.7-2-0.7-3.6H396C395,796.6,394.5,797.1,394.5,797.9 M394.5,808l1.4,0.7h0.7v-2.2H396
				C395,806.6,394.5,807.1,394.5,808 M396.7,762.6l2.2,2.9v1.4l-0.7,3.6l4.3,2.2c1-0.5,1.7-0.7,2.2-0.7v-1.4c0-1.7-1.4-3.6-4.3-5.8
				l0.7-1.4l1.4,0.7c1,0,1.4-0.5,1.4-1.4v-0.7c-1.1,0-2.5-0.7-4.3-2.2C398.8,759.7,397.9,760.7,396.7,762.6 M397.4,695h2.2v-1.4
				h-2.2V695z M397.4,815.9v0.7c0.1,1,0.6,1.4,1.4,1.4h1.4v-2.2H397.4z M399.6,779.9v0.7c0.1,1,0.6,1.4,1.4,1.4c1,0,1.4-0.5,1.4-1.4
				l-0.7-1.4C400.8,779.7,400,779.9,399.6,779.9 M400.3,746.8h1.4v-2.2h-1.4V746.8z M403.9,797.2c1.8,2.9,3,4.3,3.6,4.3h0.7l0.7-3.6
				v-0.7c-1,0-1.4-0.2-1.4-0.7C406.6,796.9,405.4,797.2,403.9,797.2 M407.5,811.6v0.7h1.4v-2.2C407.9,810.2,407.5,810.7,407.5,811.6
				 M408.9,743.2v0.7c0.1,1,0.6,1.4,1.4,1.4c1,0,1.4-0.5,1.4-1.4v-0.7H408.9z M410.3,773.4v0.7h2.2V772h-0.7
				C410.8,772.1,410.3,772.6,410.3,773.4 M415.4,808.7c0,1.1-1.2,2.5-3.6,4.3v0.7l0.7,1.4l6.5-4.3v-0.7c0-1-0.5-1.4-1.4-1.4H415.4z
				 M422.6,748.2v1.4h2.2v-0.7C424.3,748.9,423.5,748.7,422.6,748.2 M428.3,783.5v1.4c1.1,0,2,0.2,2.9,0.7l0.7-1.4l-1.4-0.7H428.3z
				 M433.4,783.5c1.9,1.8,2.9,4.2,2.9,7.2h0.7l3.6-5.8c0,0.5,0.2,0.7,0.7,0.7l0.7-2.9h-3.6l-1.4-0.7l0.7-1.4v-1.4h-2.2
				C434.1,779.7,433.4,781.1,433.4,783.5 M448.5,782.8c0,1.4-0.7,2.2-2.2,2.2v0.7h2.2c0.2,0,1.2-0.2,2.9-0.7v-2.2H448.5z
				 M456.4,784.2v0.7h0.7c1,0,1.4-0.5,1.4-1.4v-0.7h-0.7C456.9,782.9,456.4,783.4,456.4,784.2 M465.1,783.5v1.4
				c0.1,1,0.6,1.4,1.4,1.4h0.7l2.2-1.4l2.2,1.4h0.7v-2.2c-3.4,0-5-0.5-5-1.4C466.3,783.3,465.5,783.5,465.1,783.5"/>
			<path class="st6" d="M490.1,633.8c5.5,0,9.4,0.2,11.5,0.7c7.8-0.5,14.8-0.7,20.9-0.7h13.7c1,0.1,1.4,0.6,1.4,1.4v113
				c0,0.5-0.2,0.7-0.7,0.7l0.7,1.4v25.9h41.7c1,0.1,1.4,0.6,1.4,1.4v1.4l-1.4,5c1,1.6,1.4,2.8,1.4,3.6c-0.5,2.5-0.7,4-0.7,4.3
				l0.7,1.4c-0.5,2.4-1,3.6-1.4,3.6l1.4,18.7c-0.5,1-0.7,1.7-0.7,2.2c0.5,1.9,0.7,3.6,0.7,5l-1.4,0.7h-82.1c0-2.4-0.5-3.6-1.4-3.6
				h-0.7v0.7c0.5,1,0.7,1.7,0.7,2.2l-1.4,0.7h-5c-1,0-1.4-0.5-1.4-1.4v-28.8h1.4v-2.2H488V635.2C488,634.3,488.7,633.8,490.1,633.8
				 M492.3,747.5v1.4c0.1,1,0.6,1.4,1.4,1.4l0.7-1.4L492.3,747.5z M492.3,770.5l3.6,0.7c1,0,1.4-0.5,1.4-1.4v-0.7h-3.6
				C492.8,769.2,492.3,769.7,492.3,770.5 M495.2,743.9v0.7l0.7,1.4c0.8-0.5,1.8-0.7,2.9-0.7v-0.7l-0.7-1.4
				C497.2,743.7,496.3,743.9,495.2,743.9 M500.9,745.3c0,1.4-1.7,2.2-5,2.2v0.7c0,1,1.7,1.7,5,2.2v2.2c-1.4,0-2.2,0.5-2.2,1.4
				l2.9,1.4c0-2.3,0.5-4,1.4-5c-0.5-0.8-0.7-1.8-0.7-2.9c0.5,0,0.7-0.2,0.7-0.7L500.9,745.3z M495.9,764.1v0.7
				c0,0.7,0.7,1.4,2.2,2.2l1.4-0.7c-0.5-1-0.7-1.7-0.7-2.2H495.9z M495.9,795v0.7c0.5,1,0.7,1.7,0.7,2.2h2.2V795H495.9z
				 M497.3,756.1l-0.7,1.4v1.4h2.2v-1.4C498.8,756.6,498.3,756.1,497.3,756.1 M497.3,697.1v3.6c0,1,0.7,1.4,2.2,1.4l-0.7,3.6v0.7
				h0.7c1.1-1.9,2.5-2.9,4.3-2.9c0.7,0,1.4-0.7,2.2-2.2c-2.6,0-4.8-1.7-6.5-5C498.5,696.9,497.8,697.1,497.3,697.1 M498.1,737.4
				c0,0.7,1,1.7,2.9,2.9h0.7c0.7,0,1.4-0.7,2.2-2.2v-1.4h-2.2L498.1,737.4z M498.8,773.4v2.2h1.4v-0.7
				C500.2,773.9,499.7,773.4,498.8,773.4 M499.5,797.9c1.4,0,2.2,1,2.2,2.9h0.7V800c-0.5-0.8-0.7-2-0.7-3.6h-0.7
				C500,796.6,499.5,797.1,499.5,797.9 M499.5,808l1.4,0.7h0.7v-2.2h-0.7C500,806.6,499.5,807.1,499.5,808 M501.6,762.6l2.2,2.9v1.4
				l-0.7,3.6l4.3,2.2c1-0.5,1.7-0.7,2.2-0.7v-1.4c0-1.7-1.4-3.6-4.3-5.8l0.7-1.4l1.4,0.7c1,0,1.4-0.5,1.4-1.4v-0.7
				c-1.1,0-2.5-0.7-4.3-2.2C503.8,759.7,502.8,760.7,501.6,762.6 M502.4,695h2.2v-1.4h-2.2V695z M502.4,815.9v0.7
				c0.1,1,0.6,1.4,1.4,1.4h1.4v-2.2H502.4z M504.5,779.9v0.7c0.1,1,0.6,1.4,1.4,1.4c1,0,1.4-0.5,1.4-1.4l-0.7-1.4
				C505.7,779.7,505,779.9,504.5,779.9 M505.2,746.8h1.4v-2.2h-1.4V746.8z M508.8,797.2c1.8,2.9,3,4.3,3.6,4.3h0.7l0.7-3.6v-0.7
				c-1,0-1.4-0.2-1.4-0.7C511.6,796.9,510.4,797.2,508.8,797.2 M512.4,811.6v0.7h1.4v-2.2C512.9,810.2,512.4,810.7,512.4,811.6
				 M513.9,743.2v0.7c0.1,1,0.6,1.4,1.4,1.4c1,0,1.4-0.5,1.4-1.4v-0.7H513.9z M515.3,773.4v0.7h2.2V772h-0.7
				C515.8,772.1,515.3,772.6,515.3,773.4 M520.4,808.7c0,1.1-1.2,2.5-3.6,4.3v0.7l0.7,1.4l6.5-4.3v-0.7c0-1-0.5-1.4-1.4-1.4H520.4z
				 M527.6,748.2v1.4h2.2v-0.7C529.2,748.9,528.5,748.7,527.6,748.2 M533.3,783.5v1.4c1.1,0,2,0.2,2.9,0.7l0.7-1.4l-1.4-0.7H533.3z
				 M538.4,783.5c1.9,1.8,2.9,4.2,2.9,7.2h0.7l3.6-5.8c0,0.5,0.2,0.7,0.7,0.7l0.7-2.9h-3.6l-1.4-0.7l0.7-1.4v-1.4h-2.2
				C539.1,779.7,538.4,781.1,538.4,783.5 M553.5,782.8c0,1.4-0.7,2.2-2.2,2.2v0.7h2.2c0.2,0,1.2-0.2,2.9-0.7v-2.2H553.5z
				 M561.4,784.2v0.7h0.7c1,0,1.4-0.5,1.4-1.4v-0.7h-0.7C561.9,782.9,561.4,783.4,561.4,784.2 M570,783.5v1.4c0.1,1,0.6,1.4,1.4,1.4
				h0.7l2.2-1.4l2.2,1.4h0.7v-2.2c-3.4,0-5-0.5-5-1.4C571.2,783.3,570.5,783.5,570,783.5"/>
		</g>
	</g>
	<g>
		<defs>
			<path id="SVGID_3_" d="M300.5,807.7h1.4v0.7c0,1-0.5,1.4-1.4,1.4V807.7z M302.7,794h0.7v2.9h-0.7V794z M280.4,794.8
				c0.5-1,0.7-1.7,0.7-2.2h0.7v2.9L280.4,794.8z M309.9,791.9c0-0.8,0.5-1.3,1.4-1.4h0.7v0.7c0,1-0.5,1.4-1.4,1.4h-0.7V791.9z
				 M317.8,791.9c0-0.4,0.2-1.8,0.7-4.3h0.7c0,0.8,0.5,2,1.4,3.6c-0.5,0-0.7,0.5-0.7,1.4h-0.7L317.8,791.9z M299.1,786.8h1.4
				l-0.7,2.9h-0.7V786.8z M301.9,787.6v-0.7c1.4,0,2.2-0.7,2.2-2.2h1.4c0,0.4-0.2,2.3-0.7,5.8h-1.4
				C303.4,789.7,302.9,788.8,301.9,787.6 M257.3,788.3c0-0.4,0.2-1.8,0.7-4.3h1.4l3.6,2.9c-1.9,4.3-3.4,6.5-4.3,6.5
				C258.8,791.4,258.3,789.7,257.3,788.3 M312.7,786.1c0.7-1.4,1.4-2.2,2.2-2.2h0.7v0.7c-1.2,1.9-2.2,2.9-2.9,2.9V786.1z
				 M317.1,785.4c0.5-0.8,0.7-1.8,0.7-2.9h1.4v3.6h-0.7L317.1,785.4z M253.7,760.9v-1.4c0.5,0,1.2-0.2,2.2-0.7c1,0,1.4,0.5,1.4,1.4
				v0.7c0,1-0.5,1.4-1.4,1.4h-0.7C254.3,762.4,253.8,761.9,253.7,760.9 M258,763.1h2.2c0-0.5-0.2-0.7-0.7-0.7l0.7-3.6V758l-0.7-3.6
				c0.5,0,0.7-0.5,0.7-1.4h0.7c3.8,1.8,5.8,4.2,5.8,7.2c-1.8,1.8-4.4,3-7.9,3.6H258V763.1z M255.2,752.3c0.5-0.8,0.7-2,0.7-3.6h2.2
				v0.7l-0.7,3.6h-0.7L255.2,752.3z M301.9,778.9v-32.4h19.4v33.8h-18C302.5,780.4,302.1,779.9,301.9,778.9 M326.4,688.2h2.2v3.6
				h-1.4L326.4,688.2z M301.9,674.6h18.7v7.2c0,1,0.5,1.4,1.4,1.4l1.4-0.7c1.4,1.3,2.2,2.8,2.2,4.3c-1.7,0-3.4,1.2-5,3.6v14.4h-18.7
				V674.6z M314.9,665.9v-0.7c0-0.8,0.5-1.3,1.4-1.4h1.4c0.7,0,1.4,1,2.2,2.9l-1.4,0.7h-2.2C315.5,667.4,315,666.9,314.9,665.9
				 M323.5,645.8h2.9v1.4c0,1-0.5,1.4-1.4,1.4h-0.7C324.3,647.6,324,646.6,323.5,645.8 M335.8,645.8h2.2l-0.7,1.4
				C336.4,647.2,335.9,646.7,335.8,645.8 M307.7,644.3c1,0,1.4,0.5,1.4,1.4v0.7h-1.4V644.3z M330.7,645.8c0-0.8,0.5-1.3,1.4-1.4h1.4
				c0,0.5,0.2,1.2,0.7,2.2l-1.4,0.7h-0.7C331.3,647.2,330.9,646.7,330.7,645.8 M272.4,644.3v-1.4c1,0,1.4,0.5,1.4,1.4v1.4
				C273,645.8,272.6,645.3,272.4,644.3 M321.4,642.9h0.7c1,0,1.4,0.5,1.4,1.4c0,1-0.5,1.4-1.4,1.4h-0.7V642.9z M297.6,642.2h1.4v1.4
				c0,1-0.5,1.4-1.4,1.4h-0.7L297.6,642.2z M314.2,645.8c0-1.9,1.2-3.1,3.6-3.6l0.7,1.4v1.4c0,1-0.5,1.4-1.4,1.4h-1.4L314.2,645.8z
				 M302.7,645.8c0-0.8,0.5-1.3,1.4-1.4l-1.4-2.2v-1.4h1.4c0,0.7,0.5,1.7,1.4,2.9v3.6h-1.4C303.3,647.2,302.8,646.7,302.7,645.8
				 M253.7,632.8c-0.8,0-1.3,0.5-1.4,1.4v6.5c0,1.1,0.2,2,0.7,2.9c-0.5,0.8-0.7,1.8-0.7,2.9v174.2c0,1,2.9,1.7,8.6,2.2
				c0.8-0.5,2-0.7,3.6-0.7h0.7c3.1,0,6.2,0.2,9.4,0.7c0.2,0,1.2-0.2,2.9-0.7c4.6,0.5,8.9,0.7,13,0.7h3.6l1.4-0.7
				c0,0.5,0.2,0.7,0.7,0.7h5.8l5-0.7c0,0.5,0.5,0.7,1.4,0.7c0.5,0,1.2-0.2,2.2-0.7c0.8,0.5,1.8,0.7,2.9,0.7l4.3-0.7l1.4,0.7
				c2.6-0.5,4.8-0.7,6.5-0.7h19.4l25.9-25.2v-50.4c-7.1-8.2-13.8-15.1-20.2-20.9l20.2-20.9V658c-15.8-16.6-24.5-24.9-25.9-25.2
				H253.7z"/>
		</defs>
		<clipPath id="SVGID_4_">
			<use xlink:href="#SVGID_3_"  style="overflow:visible;"/>
		</clipPath>
		
			<rect x="229.8" y="620.7" transform="matrix(0.9661 -0.2583 0.2583 0.9661 -177.4102 105.1938)" class="st7" width="163.8" height="214.2"/>
	</g>
	<g>
		<defs>
			<path id="SVGID_5_" d="M395.4,815.6v-0.7h2.9v2.2h-1.4C396,817.1,395.5,816.6,395.4,815.6 M405.5,810.6c0-0.8,0.5-1.3,1.4-1.4
				v2.2h-1.4V810.6z M409.8,812.7V812c2.4-1.8,3.6-3.2,3.6-4.3h2.2c1,0,1.4,0.5,1.4,1.4v0.7l-6.5,4.3L409.8,812.7z M392.5,807
				c0-0.8,0.5-1.3,1.4-1.4h0.7v2.2H394L392.5,807z M392.5,796.9c0-0.8,0.5-1.3,1.4-1.4h0.7c0,1.6,0.2,2.8,0.7,3.6v0.7h-0.7
				C394.7,797.9,394,796.9,392.5,796.9 M401.9,796.2c1.6,0,2.8-0.2,3.6-0.7c0,0.5,0.5,0.7,1.4,0.7v0.7l-0.7,3.6h-0.7
				C404.9,800.5,403.7,799.1,401.9,796.2 M388.9,794.8V794h2.9v2.9h-2.2C389.6,796.4,389.4,795.7,388.9,794.8 M426.3,784v-1.4h2.2
				l1.4,0.7l-0.7,1.4C428.4,784.2,427.4,784,426.3,784 M444.3,784c1.4,0,2.2-0.7,2.2-2.2h2.9v2.2c-1.7,0.5-2.6,0.7-2.9,0.7h-2.2V784
				z M454.4,783.2c0-0.8,0.5-1.3,1.4-1.4h0.7v0.7c0,1-0.5,1.4-1.4,1.4h-0.7V783.2z M463.1,784v-1.4c0.5,0,1.2-0.2,2.2-0.7
				c0,1,1.7,1.4,5,1.4v2.2h-0.7l-2.2-1.4l-2.2,1.4h-0.7C463.7,785.4,463.2,784.9,463.1,784 M397.6,779.6v-0.7c0.5,0,1.2-0.2,2.2-0.7
				l0.7,1.4c0,1-0.5,1.4-1.4,1.4C398.2,781.1,397.7,780.6,397.6,779.6 M431.4,782.5c0-2.4,0.7-3.8,2.2-4.3h2.2v1.4l-0.7,1.4l1.4,0.7
				h3.6l-0.7,2.9c-0.5,0-0.7-0.2-0.7-0.7l-3.6,5.8h-0.7C434.3,786.7,433.3,784.3,431.4,782.5 M391.8,772.4c1,0,1.4,0.5,1.4,1.4v0.7
				h-1.4V772.4z M408.4,772.4c0-0.8,0.5-1.3,1.4-1.4h0.7v2.2h-2.2V772.4z M385.3,769.6c0-0.8,0.5-1.3,1.4-1.4h3.6v0.7
				c0,1-0.5,1.4-1.4,1.4L385.3,769.6z M388.9,763.8v-0.7h2.9c0,0.5,0.2,1.2,0.7,2.2l-1.4,0.7C389.6,765.2,388.9,764.5,388.9,763.8
				 M396.1,769.6l0.7-3.6v-1.4l-2.2-2.9c1.2-1.9,2.2-2.9,2.9-2.9c1.8,1.4,3.2,2.2,4.3,2.2v0.7c0,1-0.5,1.4-1.4,1.4l-1.4-0.7
				l-0.7,1.4c2.9,2.2,4.3,4.1,4.3,5.8v1.4c-0.5,0-1.2,0.2-2.2,0.7L396.1,769.6z M389.6,756.6l0.7-1.4c1,0,1.4,0.5,1.4,1.4v1.4h-2.2
				V756.6z M420.6,747.2c1,0.5,1.7,0.7,2.2,0.7v0.7h-2.2V747.2z M385.3,748v-1.4l2.2,1.4l-0.7,1.4
				C385.9,749.4,385.4,748.9,385.3,748 M391.8,753c0-1,0.7-1.4,2.2-1.4v-2.2c-3.4-0.5-5-1.2-5-2.2v-0.7c3.4,0,5-0.7,5-2.2l2.2,1.4
				c0,0.5-0.2,0.7-0.7,0.7c0,1.1,0.2,2,0.7,2.9c-1,1.1-1.4,2.8-1.4,5L391.8,753z M398.3,743.7h1.4v2.2h-1.4V743.7z M388.2,743.7
				v-0.7c1.1,0,2-0.2,2.9-0.7l0.7,1.4v0.7c-1.1,0-2,0.2-2.9,0.7L388.2,743.7z M406.9,742.9v-0.7h2.9v0.7c0,1-0.5,1.4-1.4,1.4
				C407.5,744.4,407,743.9,406.9,742.9 M391.1,736.5l3.6-0.7h2.2v1.4c-0.7,1.4-1.4,2.2-2.2,2.2H394
				C392,738.1,391.1,737.2,391.1,736.5 M391.8,704.8l0.7-3.6c-1.4,0-2.2-0.5-2.2-1.4v-3.6c0.5,0,1.2-0.2,2.2-0.7
				c1.7,3.4,3.8,5,6.5,5c-0.7,1.4-1.4,2.2-2.2,2.2c-1.8,0-3.2,1-4.3,2.9h-0.7V704.8z M395.4,692.5h2.2v1.4h-2.2V692.5z M415.6,632.8
				c-6.1,0-13.1,0.2-20.9,0.7c-2.2-0.5-6-0.7-11.5-0.7c-1.4,0-2.2,0.5-2.2,1.4v156.2h1.4v2.2H381v28.8c0,1,0.5,1.4,1.4,1.4h5
				l1.4-0.7c0-0.5-0.2-1.2-0.7-2.2v-0.7h0.7c1,0,1.4,1.2,1.4,3.6h82.1l1.4-0.7c0-1.4-0.2-3.1-0.7-5c0-0.5,0.2-1.2,0.7-2.2l-1.4-18.7
				c0.5,0,1-1.2,1.4-3.6l-0.7-1.4c0-0.4,0.2-1.8,0.7-4.3c0-0.8-0.5-2-1.4-3.6l1.4-5v-1.4c0-0.8-0.5-1.3-1.4-1.4h-41.7v-25.9L430,748
				c0.5,0,0.7-0.2,0.7-0.7v-113c0-0.8-0.5-1.3-1.4-1.4H415.6z"/>
		</defs>
		<clipPath id="SVGID_6_">
			<use xlink:href="#SVGID_5_"  style="overflow:visible;"/>
		</clipPath>
		
			<rect x="358" y="624" transform="matrix(0.9661 -0.2583 0.2583 0.9661 -173.4828 135.0967)" class="st8" width="138.8" height="207.5"/>
	</g>
	<g>
		<defs>
			<path id="SVGID_7_" d="M500.4,815.6v-0.7h2.9v2.2h-1.4C501,817.1,500.5,816.6,500.4,815.6 M510.5,810.6c0-0.8,0.5-1.3,1.4-1.4
				v2.2h-1.4V810.6z M514.8,812.7V812c2.4-1.8,3.6-3.2,3.6-4.3h2.2c1,0,1.4,0.5,1.4,1.4v0.7l-6.5,4.3L514.8,812.7z M497.5,807
				c0-0.8,0.5-1.3,1.4-1.4h0.7v2.2h-0.7L497.5,807z M497.5,796.9c0-0.8,0.5-1.3,1.4-1.4h0.7c0,1.6,0.2,2.8,0.7,3.6v0.7h-0.7
				C499.7,797.9,498.9,796.9,497.5,796.9 M506.9,796.2c1.6,0,2.8-0.2,3.6-0.7c0,0.5,0.5,0.7,1.4,0.7v0.7l-0.7,3.6h-0.7
				C509.8,800.5,508.7,799.1,506.9,796.2 M493.9,794.8V794h2.9v2.9h-2.2C494.6,796.4,494.4,795.7,493.9,794.8 M531.3,784v-1.4h2.2
				l1.4,0.7l-0.7,1.4C533.4,784.2,532.4,784,531.3,784 M549.3,784c1.4,0,2.2-0.7,2.2-2.2h2.9v2.2c-1.7,0.5-2.6,0.7-2.9,0.7h-2.2V784
				z M559.4,783.2c0-0.8,0.5-1.3,1.4-1.4h0.7v0.7c0,1-0.5,1.4-1.4,1.4h-0.7V783.2z M568,784v-1.4c0.5,0,1.2-0.2,2.2-0.7
				c0,1,1.7,1.4,5,1.4v2.2h-0.7l-2.2-1.4l-2.2,1.4h-0.7C568.6,785.4,568.2,784.9,568,784 M502.5,779.6v-0.7c0.5,0,1.2-0.2,2.2-0.7
				l0.7,1.4c0,1-0.5,1.4-1.4,1.4C503.1,781.1,502.7,780.6,502.5,779.6 M536.4,782.5c0-2.4,0.7-3.8,2.2-4.3h2.2v1.4l-0.7,1.4l1.4,0.7
				h3.6l-0.7,2.9c-0.5,0-0.7-0.2-0.7-0.7l-3.6,5.8h-0.7C539.2,786.7,538.3,784.3,536.4,782.5 M496.8,772.4c1,0,1.4,0.5,1.4,1.4v0.7
				h-1.4V772.4z M513.3,772.4c0-0.8,0.5-1.3,1.4-1.4h0.7v2.2h-2.2V772.4z M490.3,769.6c0-0.8,0.5-1.3,1.4-1.4h3.6v0.7
				c0,1-0.5,1.4-1.4,1.4L490.3,769.6z M493.9,763.8v-0.7h2.9c0,0.5,0.2,1.2,0.7,2.2l-1.4,0.7C494.6,765.2,493.9,764.5,493.9,763.8
				 M501.1,769.6l0.7-3.6v-1.4l-2.2-2.9c1.2-1.9,2.2-2.9,2.9-2.9c1.8,1.4,3.2,2.2,4.3,2.2v0.7c0,1-0.5,1.4-1.4,1.4l-1.4-0.7
				l-0.7,1.4c2.9,2.2,4.3,4.1,4.3,5.8v1.4c-0.5,0-1.2,0.2-2.2,0.7L501.1,769.6z M494.6,756.6l0.7-1.4c1,0,1.4,0.5,1.4,1.4v1.4h-2.2
				V756.6z M525.6,747.2c1,0.5,1.7,0.7,2.2,0.7v0.7h-2.2V747.2z M490.3,748v-1.4l2.2,1.4l-0.7,1.4
				C490.9,749.4,490.4,748.9,490.3,748 M496.8,753c0-1,0.7-1.4,2.2-1.4v-2.2c-3.4-0.5-5-1.2-5-2.2v-0.7c3.4,0,5-0.7,5-2.2l2.2,1.4
				c0,0.5-0.2,0.7-0.7,0.7c0,1.1,0.2,2,0.7,2.9c-1,1.1-1.4,2.8-1.4,5L496.8,753z M503.3,743.7h1.4v2.2h-1.4V743.7z M493.2,743.7
				v-0.7c1.1,0,2-0.2,2.9-0.7l0.7,1.4v0.7c-1.1,0-2,0.2-2.9,0.7L493.2,743.7z M511.9,742.9v-0.7h2.9v0.7c0,1-0.5,1.4-1.4,1.4
				C512.5,744.4,512,743.9,511.9,742.9 M496.1,736.5l3.6-0.7h2.2v1.4c-0.7,1.4-1.4,2.2-2.2,2.2h-0.7
				C497,738.1,496.1,737.2,496.1,736.5 M496.8,704.8l0.7-3.6c-1.4,0-2.2-0.5-2.2-1.4v-3.6c0.5,0,1.2-0.2,2.2-0.7
				c1.7,3.4,3.8,5,6.5,5c-0.7,1.4-1.4,2.2-2.2,2.2c-1.8,0-3.2,1-4.3,2.9h-0.7V704.8z M500.4,692.5h2.2v1.4h-2.2V692.5z M520.5,632.8
				c-6.1,0-13.1,0.2-20.9,0.7c-2.2-0.5-6-0.7-11.5-0.7c-1.4,0-2.2,0.5-2.2,1.4v156.2h1.4v2.2H486v28.8c0,1,0.5,1.4,1.4,1.4h5
				l1.4-0.7c0-0.5-0.2-1.2-0.7-2.2v-0.7h0.7c1,0,1.4,1.2,1.4,3.6h82.1l1.4-0.7c0-1.4-0.2-3.1-0.7-5c0-0.5,0.2-1.2,0.7-2.2l-1.4-18.7
				c0.5,0,1-1.2,1.4-3.6l-0.7-1.4c0-0.4,0.2-1.8,0.7-4.3c0-0.8-0.5-2-1.4-3.6l1.4-5v-1.4c0-0.8-0.5-1.3-1.4-1.4h-41.7v-25.9
				l-0.7-1.4c0.5,0,0.7-0.2,0.7-0.7v-113c0-0.8-0.5-1.3-1.4-1.4H520.5z"/>
		</defs>
		<clipPath id="SVGID_8_">
			<use xlink:href="#SVGID_7_"  style="overflow:visible;"/>
		</clipPath>
		
			<rect x="463" y="624" transform="matrix(0.9661 -0.2583 0.2583 0.9661 -169.9215 162.211)" class="st9" width="138.8" height="207.5"/>
	</g>
	<g>
		<defs>
			<path id="SVGID_9_" d="M260.8,651.7c-1.4,2.4-0.7,5.4,1.7,6.8c2.4,1.4,5.4,0.7,6.8-1.7c1.4-2.4,0.7-5.4-1.7-6.8
				c-0.8-0.5-1.7-0.7-2.6-0.7C263.4,649.3,261.8,650.2,260.8,651.7"/>
		</defs>
		<clipPath id="SVGID_10_">
			<use xlink:href="#SVGID_9_"  style="overflow:visible;"/>
		</clipPath>
		
			<linearGradient id="SVGID_11_" gradientUnits="userSpaceOnUse" x1="-15.9999" y1="1038.2522" x2="-14.9997" y2="1038.2522" gradientTransform="matrix(2.758 -9.5827 -9.5827 -2.758 10257.207 3369.2837)">
			<stop  offset="0" style="stop-color:#9C9EA1"/>
			<stop  offset="1" style="stop-color:#FFFFFF"/>
		</linearGradient>
		<polygon class="st10" points="256.6,659.2 260.3,646.3 273.6,650.1 269.9,663 		"/>
	</g>
	<g>
		<defs>
			<path id="SVGID_12_" d="M262.6,754.9c-2.2,1.6-2.7,4.8-1,7c1.6,2.2,4.8,2.7,7,1c2.2-1.6,2.7-4.8,1-7c-1-1.3-2.5-2-4-2
				C264.5,753.9,263.5,754.2,262.6,754.9"/>
		</defs>
		<clipPath id="SVGID_13_">
			<use xlink:href="#SVGID_12_"  style="overflow:visible;"/>
		</clipPath>
		
			<linearGradient id="SVGID_14_" gradientUnits="userSpaceOnUse" x1="-14.8522" y1="1035.9254" x2="-13.8524" y2="1035.9254" gradientTransform="matrix(6.1996 -7.8102 -7.8102 -6.1996 8445.4717 7069.2388)">
			<stop  offset="0" style="stop-color:#9C9EA1"/>
			<stop  offset="1" style="stop-color:#FFFFFF"/>
		</linearGradient>
		<polygon class="st11" points="254.7,760.4 264.3,748.4 276.4,758 266.8,770 		"/>
	</g>
	<g>
		<defs>
			<path id="SVGID_15_" d="M345.5,796.3c-2.8,0-5,2.3-5,5c0,2.8,2.3,5,5,5c2.8,0,5-2.3,5-5C350.5,798.5,348.3,796.3,345.5,796.3
				C345.5,796.3,345.5,796.3,345.5,796.3"/>
		</defs>
		<clipPath id="SVGID_16_">
			<use xlink:href="#SVGID_15_"  style="overflow:visible;"/>
		</clipPath>
		
			<linearGradient id="SVGID_17_" gradientUnits="userSpaceOnUse" x1="-11.5469" y1="1033.6689" x2="-10.5469" y2="1033.6689" gradientTransform="matrix(9.6173 -2.6346 -2.6346 -9.6173 3175.075 10713.3076)">
			<stop  offset="0" style="stop-color:#9C9EA1"/>
			<stop  offset="1" style="stop-color:#FFFFFF"/>
		</linearGradient>
		<polygon class="st12" points="338,797 349.8,793.8 353.1,805.6 341.2,808.8 		"/>
	</g>
	<g>
		<defs>
			<path id="SVGID_18_" d="M387.4,654.4c0,2.8,2.2,5,5,5c2.8,0,5-2.2,5-5c0-2.8-2.2-5-5-5C389.6,649.4,387.4,651.6,387.4,654.4"/>
		</defs>
		<clipPath id="SVGID_19_">
			<use xlink:href="#SVGID_18_"  style="overflow:visible;"/>
		</clipPath>
		
			<linearGradient id="SVGID_20_" gradientUnits="userSpaceOnUse" x1="-15.8551" y1="1041.7596" x2="-14.8552" y2="1041.7596" gradientTransform="matrix(-2.5756 -9.6333 -9.6333 2.5756 10388.4092 -2176.7124)">
			<stop  offset="0" style="stop-color:#9C9EA1"/>
			<stop  offset="1" style="stop-color:#FFFFFF"/>
		</linearGradient>
		<polygon class="st13" points="388.1,661.8 384.9,650.1 396.7,646.9 399.8,658.7 		"/>
	</g>
	<g>
		<defs>
			<path id="SVGID_21_" d="M389.8,778.5c-2.1,1.8-2.3,5-0.5,7c1.8,2.1,5,2.3,7,0.5c2.1-1.8,2.3-5,0.5-7c-1-1.1-2.4-1.7-3.8-1.7
				C391.9,777.3,390.7,777.7,389.8,778.5"/>
		</defs>
		<clipPath id="SVGID_22_">
			<use xlink:href="#SVGID_21_"  style="overflow:visible;"/>
		</clipPath>
		
			<linearGradient id="SVGID_23_" gradientUnits="userSpaceOnUse" x1="-6.1793" y1="1034.3005" x2="-5.1792" y2="1034.3005" gradientTransform="matrix(8.2856 5.5483 5.5483 -8.2856 -5298.6392 9383.7461)">
			<stop  offset="0" style="stop-color:#9C9EA1"/>
			<stop  offset="1" style="stop-color:#FFFFFF"/>
		</linearGradient>
		<polygon class="st14" points="390.9,772.1 403.5,780.5 395.2,792.9 382.6,784.5 		"/>
	</g>
	<g>
		<defs>
			<path id="SVGID_24_" d="M389.1,811.7c-1.1,2.5,0.1,5.5,2.6,6.6c2.5,1.1,5.5-0.1,6.6-2.6c1.1-2.5-0.1-5.5-2.6-6.6
				c-0.6-0.3-1.3-0.4-2-0.4C391.7,808.7,389.9,809.8,389.1,811.7"/>
		</defs>
		<clipPath id="SVGID_25_">
			<use xlink:href="#SVGID_24_"  style="overflow:visible;"/>
		</clipPath>
		
			<linearGradient id="SVGID_26_" gradientUnits="userSpaceOnUse" x1="-10.3787" y1="1046.4999" x2="-9.3784" y2="1046.4999" gradientTransform="matrix(-9.8652 -1.4532 -1.4532 9.8652 1816.9072 -9524.293)">
			<stop  offset="0" style="stop-color:#9C9EA1"/>
			<stop  offset="1" style="stop-color:#FFFFFF"/>
		</linearGradient>
		<polygon class="st15" points="399.1,821 386.4,819.1 388.2,807 400.8,808.9 		"/>
	</g>
	<g>
		<defs>
			<path id="SVGID_27_" d="M454.9,809.6c-1.5,2.3-0.9,5.4,1.4,6.9c2.3,1.5,5.4,0.9,6.9-1.4c1.5-2.3,0.9-5.4-1.4-6.9
				c-0.8-0.6-1.8-0.8-2.7-0.8C457.4,807.4,455.8,808.2,454.9,809.6"/>
		</defs>
		<clipPath id="SVGID_28_">
			<use xlink:href="#SVGID_27_"  style="overflow:visible;"/>
		</clipPath>
		
			<linearGradient id="SVGID_29_" gradientUnits="userSpaceOnUse" x1="-11.4609" y1="1046.1732" x2="-10.4607" y2="1046.1732" gradientTransform="matrix(-9.4679 -3.1295 -3.1295 9.4679 3629.1411 -9126.6953)">
			<stop  offset="0" style="stop-color:#9C9EA1"/>
			<stop  offset="1" style="stop-color:#FFFFFF"/>
		</linearGradient>
		<polygon class="st16" points="463.6,821.4 450.2,817 454.5,804 467.9,808.4 		"/>
	</g>
	<g>
		<defs>
			<path id="SVGID_30_" d="M494.8,785.2c-1.6,2.3-1,5.4,1.2,6.9c2.3,1.6,5.4,1,6.9-1.2c1.6-2.3,1-5.4-1.2-6.9
				c-0.9-0.6-1.9-0.9-2.8-0.9C497.3,783.1,495.8,783.8,494.8,785.2"/>
		</defs>
		<clipPath id="SVGID_31_">
			<use xlink:href="#SVGID_30_"  style="overflow:visible;"/>
		</clipPath>
		
			<linearGradient id="SVGID_32_" gradientUnits="userSpaceOnUse" x1="-11.6619" y1="1046.1726" x2="-10.6619" y2="1046.1726" gradientTransform="matrix(-9.3738 -3.3952 -3.3952 9.3738 3946.1309 -9056.1592)">
			<stop  offset="0" style="stop-color:#9C9EA1"/>
			<stop  offset="1" style="stop-color:#FFFFFF"/>
		</linearGradient>
		<polygon class="st17" points="503.2,797.3 489.8,792.5 494.5,779.4 508,784.3 		"/>
	</g>
	<g>
		<defs>
			<path id="SVGID_33_" d="M524.6,765.7c-2.1,1.8-2.3,4.9-0.5,7c1.8,2.1,4.9,2.3,7,0.5c2.1-1.8,2.3-4.9,0.5-7
				c-1-1.2-2.4-1.7-3.8-1.7C526.7,764.5,525.5,764.9,524.6,765.7"/>
		</defs>
		<clipPath id="SVGID_34_">
			<use xlink:href="#SVGID_33_"  style="overflow:visible;"/>
		</clipPath>
		
			<linearGradient id="SVGID_35_" gradientUnits="userSpaceOnUse" x1="-15.1649" y1="1036.2965" x2="-14.165" y2="1036.2965" gradientTransform="matrix(5.6418 -8.2246 -8.2246 -5.6418 9133.8418 6495.5273)">
			<stop  offset="0" style="stop-color:#9C9EA1"/>
			<stop  offset="1" style="stop-color:#FFFFFF"/>
		</linearGradient>
		<polygon class="st18" points="517.3,771.7 525.8,759.3 538.3,767.9 529.8,780.3 		"/>
	</g>
	<g>
		<defs>
			<path id="SVGID_36_" d="M527.7,651.3c-2.7,0.3-4.8,2.7-4.5,5.4c0.3,2.7,2.7,4.8,5.4,4.5c2.7-0.3,4.8-2.7,4.5-5.4
				c-0.2-2.6-2.4-4.5-5-4.5C528,651.3,527.9,651.3,527.7,651.3"/>
		</defs>
		<clipPath id="SVGID_37_">
			<use xlink:href="#SVGID_36_"  style="overflow:visible;"/>
		</clipPath>
		
			<linearGradient id="SVGID_38_" gradientUnits="userSpaceOnUse" x1="-15.6759" y1="1042.4531" x2="-14.6761" y2="1042.4531" gradientTransform="matrix(-3.4755 -9.3453 -9.3453 3.4755 10217.4453 -3108.5828)">
			<stop  offset="0" style="stop-color:#9C9EA1"/>
			<stop  offset="1" style="stop-color:#FFFFFF"/>
		</linearGradient>
		<polygon class="st19" points="524.2,664.9 519.6,652.5 532.1,647.9 536.8,660.3 		"/>
	</g>
	<g>
		<defs>
			<path id="SVGID_39_" d="M495.4,651.2c-2.7,0.5-4.5,3-4.1,5.7c0.5,2.7,3,4.5,5.7,4.1c2.7-0.5,4.5-3,4.1-5.7
				c-0.4-2.4-2.5-4.2-4.9-4.2C496,651.1,495.7,651.1,495.4,651.2"/>
		</defs>
		<clipPath id="SVGID_40_">
			<use xlink:href="#SVGID_39_"  style="overflow:visible;"/>
		</clipPath>
		
			<linearGradient id="SVGID_41_" gradientUnits="userSpaceOnUse" x1="-12.5479" y1="1033.9034" x2="-11.5481" y2="1033.9034" gradientTransform="matrix(9.0729 -4.1374 -4.1374 -9.0729 4883.3145 9986.9131)">
			<stop  offset="0" style="stop-color:#9C9EA1"/>
			<stop  offset="1" style="stop-color:#FFFFFF"/>
		</linearGradient>
		<polygon class="st20" points="487,652.9 499.8,647.1 505.5,659.7 492.7,665.5 		"/>
	</g>
	<g>
		<defs>
			<path id="SVGID_42_" d="M417.3,651.3c-1.9,2-1.7,5.2,0.3,7c2,1.9,5.2,1.7,7-0.3c1.9-2,1.7-5.2-0.3-7c-1-0.9-2.2-1.3-3.4-1.3
				C419.7,649.7,418.3,650.2,417.3,651.3"/>
		</defs>
		<clipPath id="SVGID_43_">
			<use xlink:href="#SVGID_42_"  style="overflow:visible;"/>
		</clipPath>
		
			<linearGradient id="SVGID_44_" gradientUnits="userSpaceOnUse" x1="-12.5164" y1="1045.8838" x2="-11.5163" y2="1045.8838" gradientTransform="matrix(-8.8264 -4.6399 -4.6399 8.8264 5167.6245 -8632.2617)">
			<stop  offset="0" style="stop-color:#9C9EA1"/>
			<stop  offset="1" style="stop-color:#FFFFFF"/>
		</linearGradient>
		<polygon class="st21" points="424.1,664.7 411.1,657.9 417.9,645.1 430.9,652 		"/>
	</g>
</g>
</svg>
